<svg width="749" height="595" viewBox="0 0 749 595" fill="none" xmlns="http://www.w3.org/2000/svg">
<path d="M115.174 556.95C115.174 556.95 28.2537 511.54 49.1972 409.43C70.1407 307.321 155.437 283.091 190.516 290.587C256.263 304.636 148.846 346.09 123.186 274.938C90.9914 185.664 205.783 118.072 312.194 135.564C380.582 146.807 413.593 179.544 474.385 200.115C534.96 220.612 560.366 193.16 536.231 177.249C513.323 162.145 430.145 186.787 458.704 220.561C497.809 266.806 592.051 195.156 665.092 274.938C738.133 354.72 674.725 455.022 618.572 463.387C562.42 471.75 587.041 391.149 674.725 455.023C762.409 518.898 651.651 588.143 651.651 588.143" stroke="url(#paint0_linear_29_4158)" stroke-miterlimit="10"/>
<path d="M712.016 594.528H47.5857C44.0579 594.528 41.1997 591.668 41.1997 588.142C41.1997 584.614 44.0594 581.756 47.5857 581.756H718.402V588.142C718.402 591.668 715.542 594.528 712.016 594.528Z" fill="#C26EE2"/>
<path d="M286.358 594.528H47.5857C44.0579 594.528 41.1997 591.668 41.1997 588.142V581.756H292.745V588.142C292.745 591.668 289.886 594.528 286.358 594.528Z" fill="#1C145E"/>
<path d="M385.619 338.293C357.166 392.97 325.195 415.246 325.195 415.246L352.805 459.326L401.018 409.224L385.619 338.293Z" fill="#1C145E"/>
<path d="M456.167 325.243L385.618 338.293C381.15 471.77 379.475 581.738 379.475 581.738H506.107C506.107 581.738 509.782 377.346 489.41 332.751L456.167 325.243Z" fill="#1C145E"/>
<path d="M447.976 393.262L482.346 390.355" stroke="#C26EE2" stroke-width="4" stroke-miterlimit="10"/>
<path d="M432.199 364.576C432.199 364.576 454.014 513.442 435.033 573.677" stroke="#C26EE2" stroke-miterlimit="10"/>
<path d="M409.357 439.145C409.357 439.145 430.428 447.626 457.746 448.524C485.063 449.421 468.067 463.956 427.57 461.2" stroke="#C26EE2" stroke-miterlimit="10"/>
<path d="M414.788 319.816L432.199 366.074L456.167 325.243L440.37 299.428L414.788 319.816Z" fill="#E9A394"/>
<path d="M432.199 366.074L464.701 357.101L456.167 325.243L432.199 366.074Z" fill="#C26EE2"/>
<path d="M418.657 330.095L401.018 349.796L432.199 366.074L418.657 330.095Z" fill="#C26EE2"/>
<path d="M352.805 459.326C352.805 459.326 363.107 437.843 340.987 410.173C328.721 394.829 323.07 368.352 323.07 368.352L304.641 371.155L321.516 459.327H352.805V459.326Z" fill="#E9A394"/>
<path d="M300.874 340.707L293.328 347.564L303.416 356.469L271.829 355.931L271.152 366.769L304.64 371.155L323.07 368.352L300.874 340.707Z" fill="#E9A394"/>
<path d="M306.394 357.586L276.088 345.085L274.131 350.469L299.427 361.099L306.394 357.586Z" fill="#E9A394"/>
<path d="M489.412 332.751C489.412 332.751 530.123 355.931 542.979 442.758L495.747 454.155L489.412 332.751Z" fill="#1C145E"/>
<path d="M400.994 263.287L385.618 302.63L397.376 306.248L400.994 328.408L438.531 319.815L443.956 259.669L400.994 263.287Z" fill="#E9A394"/>
<path d="M426.045 272.636H397.34L400.471 264.154L426.045 262.573V272.636Z" fill="#FF6361"/>
<path d="M441.044 290.585C441.044 290.585 422.731 286.797 422.731 267.851C422.731 267.851 395.559 271.55 386.178 256.801C375.068 239.329 392.048 219.252 406.07 223.331C406.07 223.331 397.234 232.09 410.654 233.119C420.225 233.853 437.714 221.12 443.958 233.435C443.958 233.435 492.131 244.438 456.168 289.322L441.044 290.585Z" fill="#16005C"/>
<path d="M422.73 266.353C422.73 266.353 386.408 273.372 378.811 247.324C374.37 232.097 389.633 223.425 389.633 223.425" stroke="#16005C" stroke-width="2" stroke-miterlimit="10"/>
<path d="M407.36 301.377C414.933 301.377 421.071 295.238 421.071 287.666C421.071 280.093 414.933 273.954 407.36 273.954C399.788 273.954 393.649 280.093 393.649 287.666C393.649 295.238 399.788 301.377 407.36 301.377Z" stroke="#16005C" stroke-width="0.5" stroke-miterlimit="10"/>
<path d="M420.334 283.229L439.862 284.298" stroke="#16005C" stroke-width="0.5" stroke-miterlimit="10"/>
<path d="M464.701 294.038C464.701 302.53 453.323 309.413 444.831 309.413C436.339 309.413 433.95 302.529 433.95 294.038C433.95 285.547 440.835 278.662 449.325 278.662C457.816 278.662 464.701 285.547 464.701 294.038Z" fill="#E9A394"/>
<path d="M537.342 444.116V515.02H501.988L499.045 453.358L537.342 444.116Z" fill="#E9A394"/>
<path d="M382.865 428.088L384.35 378.684L361.448 450.345L382.865 428.088Z" fill="#1C145C"/>
<path d="M416.607 324.521L438.531 319.815L420.558 335.144L416.607 324.521Z" fill="#FF6361"/>
<path d="M403.643 294.038C405.092 294.038 406.267 291.587 406.267 288.564C406.267 285.541 405.092 283.091 403.643 283.091C402.193 283.091 401.018 285.541 401.018 288.564C401.018 291.587 402.193 294.038 403.643 294.038Z" fill="#16005C"/>
<path d="M410.77 275.252C410.77 267.917 404.931 272.855 404.931 272.855L410.77 275.252Z" fill="#16005C"/>
<path d="M404.929 307.722L413.281 305.499C413.281 305.499 416.859 336.475 404.929 307.722Z" fill="#1A153B"/>
<path d="M224.962 446.563C224.962 446.563 281.307 437.844 282.414 536.098C282.593 552.043 292.745 581.754 292.745 581.754H241.683L224.962 446.563Z" fill="#C26EE2"/>
<path d="M166.047 437.844L131.993 445.883L142.383 581.754H274.884C274.884 581.754 270.44 474.253 220.473 442.003L166.047 437.844Z" fill="#C26EE2"/>
<path d="M131.993 445.883C96.8937 453.888 105.11 480.828 111.887 536.149C94.3681 550.377 111.176 556.781 111.176 556.781C91.9353 577.176 115.938 581.754 115.938 581.754H180.013C180.013 581.754 167.117 437.871 131.993 445.883Z" fill="#C26EE2"/>
<path d="M176.202 550.373L160.825 479.787" stroke="#C26EE2" stroke-miterlimit="10"/>
<path d="M115.936 581.754C115.936 581.754 126.755 556.916 160.946 544.429C189.296 534.076 230.765 560.952 257.311 535.414L262.228 564.166L180.011 581.754H115.936Z" fill="#E9A394"/>
<path d="M228.649 367.867L253.998 406.452L237.731 412.259L234.919 443.616L186.034 426.632L190.64 362.849L228.649 367.867Z" fill="#E9A394"/>
<path d="M191.036 408.398L166.047 437.844L198.093 477.116L212.545 431.247L191.036 408.398Z" fill="#FF6361"/>
<path d="M199.392 390.166L235.149 377.761L228.649 367.867L193.326 371.543L199.392 390.166Z" fill="#FF6361"/>
<path d="M196.304 403.683C196.304 403.683 207.13 425.357 199.598 383.576C199.598 383.576 209.871 384.73 217.917 371.171C217.917 371.171 215.417 393.265 239.018 371.171C262.619 349.076 232.616 331.789 195.954 338.293C164.176 343.932 132.377 361.885 178.854 422.754L196.304 403.683Z" fill="#16005C"/>
<path d="M190.516 412.301C188.077 415.571 183.887 418.538 179.531 419.173C170.819 420.442 162.31 413.565 161.041 404.852C159.772 396.14 164.173 391.616 172.884 390.347C177.781 389.634 183.451 391.086 187.704 394.041C188.989 395.643 190.516 412.301 190.516 412.301Z" fill="#E9A394"/>
<path d="M225.003 400.257C226.307 399.903 226.71 397.203 225.902 394.225C225.094 391.248 223.381 389.121 222.077 389.475C220.772 389.829 220.369 392.53 221.177 395.507C221.985 398.485 223.698 400.612 225.003 400.257Z" fill="#16005C"/>
<path d="M215.092 387.291C215.092 387.291 213.822 380.126 220.473 383.576L215.092 387.291Z" fill="#16005C"/>
<path d="M162.046 439.049L167.848 432.386L165.719 427.447L178.852 422.755L216.529 441.702L217.916 456.168L211.54 454.153L201.132 492.948L162.046 439.049Z" fill="#C26EE2"/>
<path d="M196.067 448.522L217.916 456.168L216.529 441.702" stroke="#C26EE2" stroke-miterlimit="10"/>
<path d="M199.598 383.576C199.598 383.576 203.993 409.156 210.421 414.416C212.532 416.143 216.527 411.749 234.919 411.381C246.165 411.156 246.156 450.41 231.233 449.285C216.31 448.16 193.632 438.856 190.233 410.244C187.253 385.143 199.598 383.576 199.598 383.576Z" fill="#16005C"/>
<path d="M217.916 419.173C217.916 419.173 221.708 426.236 229.183 421.452" stroke="#C4C6C5" stroke-miterlimit="10"/>
<path d="M303.199 565.6H177.415V574.919C177.415 578.694 180.475 581.753 184.248 581.753H303.199C306.974 581.753 310.033 578.692 310.033 574.919V572.434C310.034 568.66 306.974 565.6 303.199 565.6Z" fill="#1C145E"/>
<path d="M405.355 472.177H259.036C254.687 472.177 251.016 475.41 250.465 479.722L238.677 572.019C238.018 577.184 242.041 581.754 247.248 581.754H393.567C397.916 581.754 401.587 578.522 402.139 574.209L413.926 481.913C414.585 476.747 410.562 472.177 405.355 472.177Z" fill="#1C145E"/>
<path d="M412.436 472.177H266.117C261.768 472.177 258.097 475.41 257.546 479.722L245.758 572.019C245.099 577.184 249.122 581.754 254.329 581.754H400.648C404.997 581.754 408.668 578.522 409.22 574.209L421.007 481.913C421.666 476.747 417.643 472.177 412.436 472.177Z" fill="#C26EE2"/>
<path d="M342.799 536.882C348.892 531.101 349.612 521.967 344.407 516.482C339.203 510.997 330.044 511.237 323.951 517.018C317.857 522.8 317.137 531.934 322.342 537.419C327.547 542.904 336.706 542.664 342.799 536.882Z" fill="#1A153B"/>
<path d="M409.245 580.972H227.117" stroke="#1C145E" stroke-miterlimit="10"/>
<path d="M489.735 457.456L550.196 458.602L536.489 384.641L504.341 388.282C504.341 388.282 489.86 409.655 501.295 426.274C514.198 445.024 488.407 445.724 489.735 457.456Z" fill="#16005C"/>
<path d="M504.339 388.282C504.339 388.282 489.858 409.655 501.294 426.274C514.198 445.026 488.407 445.724 489.735 457.456" stroke="#C26EE2" stroke-width="2" stroke-miterlimit="10"/>
<path d="M516.402 448.522C516.402 448.522 488.892 475.516 474.387 577.244H505.009L516.402 448.522Z" fill="#C26EE2"/>
<path d="M589.105 441.002L577.133 577.244H488.194L499.266 525.209C499.266 525.209 465.405 507.543 516.401 448.522L529.076 442.003L584.142 437.844L589.105 441.002Z" fill="url(#paint1_linear_29_4158)"/>
<path d="M516.402 509.497C516.402 509.497 511.07 518.629 516.196 525.96L508.648 577.244" stroke="#C26EE2" stroke-miterlimit="10"/>
<path d="M503.971 525.444L555.486 526.965" stroke="#C26EE2" stroke-miterlimit="10"/>
<path d="M565.642 551.09L560.194 485.56" stroke="#C26EE2" stroke-miterlimit="10"/>
<path d="M589.105 441.002C589.105 441.002 594.017 447.181 599.704 461.51C607.766 481.827 617.382 518.533 616.751 577.242H577.133L589.105 441.002Z" fill="url(#paint2_linear_29_4158)"/>
<path d="M616.751 581.738C616.751 581.738 596.957 536.468 547.168 549.423C492.804 563.569 472.617 560.925 472.617 560.925L468.496 581.738H616.751Z" fill="#E9A394"/>
<path d="M564.929 539.909L547.263 543.859L587.39 581.738H625.213C625.213 581.738 608.912 542.212 564.929 539.909Z" fill="#C26EE2"/>
<path d="M566.021 551.658L574.435 549.087" stroke="url(#paint3_linear_29_4158)" stroke-miterlimit="10"/>
<path d="M472.616 560.925L446.785 555.584L428.268 581.738H468.495L472.616 560.925Z" fill="#E9A394"/>
<path d="M516.401 509.497L564.403 461.495L555.486 457.284L589.105 441.002L573.667 431.178H537.736L516.401 457.846L522.296 459.326L516.401 463.46V509.497Z" fill="#C26EE2"/>
<path d="M549.961 447.496L565.642 436.66L548.715 398.81L522.477 415.289L529.868 446.686L516.401 509.497L549.961 447.496Z" fill="#E9A394"/>
<path d="M524.588 424.256L543.001 414.654L526.562 432.639L524.588 424.256Z" fill="#FF6361"/>
<path d="M490.95 369.459L482.911 414.019H494.971L508.513 432.639L543.001 414.654L518.881 360.91L490.95 369.459Z" fill="#E9A394"/>
<path d="M489.001 380.264L488.194 385.16L520.001 380.82L519.514 374.725L489.001 380.264Z" fill="#FF6361"/>
<path d="M578.864 366.074C570.902 344.491 561.166 336.169 561.166 336.169C541.655 316.781 508.302 338.295 508.302 338.295C465.561 327.95 482.911 381.013 482.911 381.013L517.718 376.744C522.585 405.943 539.99 391.158 539.99 391.158L548.108 405.799C548.108 405.799 539.919 413.038 548.457 425.447C555.487 435.665 538.653 439.146 543.003 450.023L610.283 436.078C610.283 391.809 593.253 405.082 578.864 366.074Z" fill="#16005C"/>
<path d="M480.183 381.356C480.183 381.356 474.027 351.059 485.334 341.201C491.23 336.06 509.798 338.295 509.798 338.295" stroke="#C26EE2" stroke-width="2" stroke-miterlimit="10"/>
<path d="M614.687 434.802C614.687 434.802 620.06 414.654 590.785 391.808" stroke="#16005C" stroke-width="2" stroke-miterlimit="10"/>
<path d="M540.991 407.672C548.996 407.672 555.484 401.183 555.484 393.179C555.484 385.174 548.996 378.685 540.991 378.685C532.987 378.685 526.498 385.174 526.498 393.179C526.498 401.183 532.987 407.672 540.991 407.672Z" fill="#E9A394"/>
<path d="M503.971 412.38L512.956 410.173C512.956 410.173 516.109 435.8 503.971 412.38Z" fill="#1A153B"/>
<path d="M496.488 397.237C496.488 397.237 499.348 379.807 505.605 397.237" stroke="#1C145E" stroke-width="0.5" stroke-miterlimit="10"/>
<path d="M498.696 383.978C498.696 383.978 502.179 378.079 506.306 383.978H498.696Z" fill="#16005C"/>
<path d="M363.497 226.956C358.284 212.458 341.895 205.199 327.529 211.393C315.166 216.725 308.612 230.75 312.447 243.657C314.591 250.873 319.432 256.455 325.494 259.711C331.091 262.716 335.894 267.005 339.414 272.291L340.43 273.816L360.558 266.579L360.371 264.765C359.707 258.342 360.831 251.916 363.205 245.91C365.521 240.048 365.797 233.352 363.497 226.956Z" fill="url(#paint4_linear_29_4158)"/>
<path d="M363.497 226.956C358.284 212.458 341.895 205.199 327.529 211.393C315.166 216.725 308.612 230.75 312.447 243.657C314.591 250.873 319.432 256.455 325.494 259.711C331.091 262.716 335.894 267.005 339.414 272.291L340.43 273.816L360.558 266.579L360.371 264.765C359.707 258.342 360.831 251.916 363.205 245.91C365.521 240.048 365.797 233.352 363.497 226.956Z" fill="url(#paint5_linear_29_4158)"/>
<path d="M345.034 267.88L328.989 245.251C328.989 245.251 329.281 240.669 334.318 241.395C339.354 242.122 342.36 250.07 338.767 248.788C335.173 247.505 333.901 238.162 340.702 236.738C347.502 235.313 349.774 250.762 346.017 247.786C342.26 244.809 343.052 234.973 350.334 234.892L354.607 267.529" stroke="#1A153B" stroke-miterlimit="10"/>
<path d="M360.091 282.046L350.638 285.445C347.045 286.738 343.082 284.872 341.791 281.278L339.793 275.72C338.5 272.127 340.367 268.164 343.96 266.873L353.413 263.474C357.006 262.181 360.967 264.048 362.26 267.642L364.258 273.199C365.549 276.793 363.684 280.754 360.091 282.046Z" fill="#16005C"/>
<path d="M362.316 258.442L333.851 268.676L338.846 282.572L367.312 272.338L362.316 258.442Z" fill="#C26EE2"/>
<path d="M337.531 202.318L334.691 186.037" stroke="url(#paint6_linear_29_4158)" stroke-miterlimit="10"/>
<path d="M317.017 212.016L303.418 198.734" stroke="url(#paint7_linear_29_4158)" stroke-miterlimit="10"/>
<path d="M302.845 236.146L287.329 237.256" stroke="url(#paint8_linear_29_4158)" stroke-miterlimit="10"/>
<path d="M359.896 211.24L366.88 198.29" stroke="url(#paint9_linear_29_4158)" stroke-miterlimit="10"/>
<path d="M578.366 330.853H674.579C677.925 330.853 681.129 328.141 681.735 324.795L691.678 269.942C692.284 266.597 690.063 263.885 686.718 263.885H590.504C587.159 263.885 583.955 266.596 583.348 269.942L573.406 324.795C572.801 328.14 575.021 330.853 578.366 330.853Z" fill="#1C145C"/>
<path d="M655.5 301.63C658.308 299.065 658.849 295.085 656.708 292.742C654.568 290.398 650.555 290.578 647.747 293.143C644.938 295.709 644.397 299.688 646.538 302.032C648.679 304.376 652.691 304.196 655.5 301.63Z" fill="#1A153B"/>
<path d="M636.389 301.63C639.197 299.065 639.738 295.085 637.598 292.741C635.457 290.398 631.445 290.577 628.636 293.143C625.828 295.708 625.286 299.688 627.427 302.031C629.568 304.375 633.58 304.195 636.389 301.63Z" fill="#1A153B"/>
<path d="M617.278 301.63C620.086 299.064 620.628 295.085 618.487 292.741C616.346 290.397 612.334 290.577 609.525 293.142C606.717 295.708 606.175 299.688 608.316 302.031C610.457 304.375 614.469 304.195 617.278 301.63Z" fill="#1A153B"/>
<path d="M630.147 327.245L596.716 347.113L602.708 325.678L630.147 327.245Z" fill="#1C145C"/>
<path d="M268.413 322.722H172.2C168.855 322.722 165.651 320.01 165.044 316.664L155.102 261.811C154.495 258.466 156.717 255.753 160.062 255.753H256.275C259.62 255.753 262.824 258.465 263.431 261.811L273.373 316.664C273.98 320.009 271.76 322.722 268.413 322.722Z" fill="url(#paint10_linear_29_4158)"/>
<path d="M200.195 293.876C202.336 291.532 201.795 287.552 198.986 284.987C196.178 282.421 192.166 282.242 190.025 284.585C187.884 286.929 188.425 290.909 191.234 293.474C194.042 296.039 198.054 296.219 200.195 293.876Z" fill="#1A153B"/>
<path d="M219.306 293.876C221.446 291.532 220.905 287.552 218.097 284.987C215.288 282.421 211.276 282.242 209.135 284.585C206.994 286.929 207.536 290.909 210.344 293.474C213.153 296.039 217.165 296.219 219.306 293.876Z" fill="#1A153B"/>
<path d="M238.415 293.877C240.556 291.533 240.015 287.553 237.206 284.988C234.398 282.423 230.385 282.243 228.244 284.586C226.104 286.93 226.645 290.91 229.453 293.475C232.262 296.041 236.274 296.22 238.415 293.877Z" fill="#1A153B"/>
<path d="M234.091 319.114L239.369 338.293L260.712 317.772L234.091 319.114Z" fill="url(#paint11_linear_29_4158)"/>
<defs>
<linearGradient id="paint0_linear_29_4158" x1="377.219" y1="132.794" x2="377.219" y2="588.143" gradientUnits="userSpaceOnUse">
<stop stop-color="#FFD380"/>
<stop offset="1" stop-color="#FF6361"/>
</linearGradient>
<linearGradient id="paint1_linear_29_4158" x1="538.649" y1="437.844" x2="538.649" y2="577.244" gradientUnits="userSpaceOnUse">
<stop stop-color="#FFD380"/>
<stop offset="1" stop-color="#FF6361"/>
</linearGradient>
<linearGradient id="paint2_linear_29_4158" x1="596.957" y1="441.002" x2="596.957" y2="577.242" gradientUnits="userSpaceOnUse">
<stop stop-color="#FFD380"/>
<stop offset="1" stop-color="#FF6361"/>
</linearGradient>
<linearGradient id="paint3_linear_29_4158" x1="570.228" y1="549.087" x2="570.228" y2="551.658" gradientUnits="userSpaceOnUse">
<stop stop-color="#FFD380"/>
<stop offset="1" stop-color="#FF6361"/>
</linearGradient>
<linearGradient id="paint4_linear_29_4158" x1="338.221" y1="209.172" x2="338.221" y2="273.816" gradientUnits="userSpaceOnUse">
<stop stop-color="#FFD380"/>
<stop offset="1" stop-color="#FF6361"/>
</linearGradient>
<linearGradient id="paint5_linear_29_4158" x1="338.221" y1="209.172" x2="338.221" y2="273.816" gradientUnits="userSpaceOnUse">
<stop stop-color="#FFD380"/>
<stop offset="1" stop-color="#FF6361"/>
</linearGradient>
<linearGradient id="paint6_linear_29_4158" x1="336.111" y1="186.037" x2="336.111" y2="202.318" gradientUnits="userSpaceOnUse">
<stop stop-color="#FFD380"/>
<stop offset="1" stop-color="#FF6361"/>
</linearGradient>
<linearGradient id="paint7_linear_29_4158" x1="310.218" y1="198.734" x2="310.218" y2="212.016" gradientUnits="userSpaceOnUse">
<stop stop-color="#FFD380"/>
<stop offset="1" stop-color="#FF6361"/>
</linearGradient>
<linearGradient id="paint8_linear_29_4158" x1="295.087" y1="236.146" x2="295.087" y2="237.256" gradientUnits="userSpaceOnUse">
<stop stop-color="#FFD380"/>
<stop offset="1" stop-color="#FF6361"/>
</linearGradient>
<linearGradient id="paint9_linear_29_4158" x1="363.388" y1="198.29" x2="363.388" y2="211.24" gradientUnits="userSpaceOnUse">
<stop stop-color="#FFD380"/>
<stop offset="1" stop-color="#FF6361"/>
</linearGradient>
<linearGradient id="paint10_linear_29_4158" x1="214.238" y1="255.753" x2="214.238" y2="322.722" gradientUnits="userSpaceOnUse">
<stop stop-color="#FFD380"/>
<stop offset="1" stop-color="#FF6361"/>
</linearGradient>
<linearGradient id="paint11_linear_29_4158" x1="247.402" y1="317.772" x2="247.402" y2="338.293" gradientUnits="userSpaceOnUse">
<stop stop-color="#FFD380"/>
<stop offset="1" stop-color="#FF6361"/>
</linearGradient>
</defs>
</svg>
