<svg width="483" height="462" viewBox="0 0 483 462" fill="none" xmlns="http://www.w3.org/2000/svg">
<path opacity="0.6" d="M261.229 438.097L36.865 308.559C33.595 306.672 34.0051 303.374 37.7815 301.193L181.781 218.054C185.558 215.875 191.27 215.637 194.54 217.526L418.904 347.065C422.174 348.954 421.764 352.252 417.987 354.431L273.988 437.568C270.213 439.749 264.499 439.986 261.229 438.097Z" fill="#0B0813"/>
<path d="M266.369 461.484C263.745 461.484 261.23 460.938 259.309 459.829H259.31L3.24359 311.989C1.1511 310.784 0 309.043 0 307.088C0 304.844 1.56276 302.653 4.2875 301.08L178.839 198.813C183.627 196.048 190.659 195.782 194.855 198.204L450.92 346.046C453.013 347.251 454.164 348.994 454.164 350.947C454.164 353.191 452.601 355.38 449.875 356.954L275.325 459.22C272.729 460.719 269.475 461.484 266.369 461.484ZM187.829 199.452C185.206 199.452 182.419 200.084 180.293 201.31L5.7431 303.576C3.95508 304.609 2.89251 305.92 2.89251 307.085C2.89251 308.211 3.86964 309.011 4.68831 309.485L260.755 457.325H260.757C264.025 459.216 270.034 458.939 273.869 456.721L448.421 354.454C450.209 353.421 451.271 352.112 451.271 350.945C451.271 349.82 450.294 349.02 449.475 348.547L193.41 200.705C191.95 199.865 189.943 199.452 187.829 199.452Z" fill="url(#paint0_linear_125_1094)"/>
<path d="M478.508 129.895L255.027 0.867071C253.491 -0.0199459 251.888 -0.203248 250.467 0.211522L250.465 0.213074C250.459 0.214628 250.451 0.217731 250.445 0.219285L246.306 1.66088L247.764 2.00575C247.179 2.69703 246.709 3.55453 246.4 4.56116L195.86 168.653C194.608 172.722 196.442 177.666 199.956 179.695L423.438 308.723C423.982 309.036 424.533 309.252 425.082 309.394L424.529 310.599L428.482 309.21L428.473 309.207C430.091 308.563 431.426 307.116 432.069 305.027L482.609 140.935C483.856 136.867 482.022 131.923 478.508 129.895Z" fill="url(#paint1_linear_125_1094)"/>
<path d="M415.436 314.849L415.515 314.944L194.774 187.499C191.527 185.624 185.854 185.861 182.106 188.024L39.4853 270.366L34.7302 268.55L36.0662 275.222L36.0724 275.219C36.2495 276.223 36.9517 277.163 38.2131 277.891L260.996 406.515C264.242 408.39 269.916 408.154 273.664 405.99L416.648 323.438C418.413 322.419 419.427 321.156 419.679 319.907L419.686 319.917L421.05 313.423L415.436 314.849Z" fill="url(#paint2_linear_125_1094)"/>
<path d="M261.229 400.643L36.865 271.106C33.595 269.218 34.0051 265.92 37.7815 263.739L181.781 180.602C185.558 178.423 191.27 178.185 194.54 180.074L418.904 309.611C422.174 311.498 421.764 314.798 417.987 316.978L273.988 400.115C270.213 402.294 264.499 402.532 261.229 400.643Z" fill="url(#paint3_linear_125_1094)"/>
<path d="M417.987 315.23L273.987 398.367C270.211 400.548 264.499 400.784 261.229 398.897L36.8648 269.36C35.7509 268.717 35.0969 267.904 34.8251 267.033C34.3917 268.536 35.0255 270.045 36.8648 271.106L261.23 400.643C264.5 402.53 270.212 402.294 273.989 400.115L417.989 316.978C420.479 315.541 421.471 313.622 420.945 311.938C420.606 313.108 419.64 314.276 417.987 315.23Z" fill="white"/>
<g opacity="0.4">
<path d="M143.883 250.085L136.309 245.712C135.7 245.361 135.777 244.747 136.479 244.341L145.42 239.179C146.122 238.774 147.184 238.73 147.793 239.081L155.368 243.454C155.977 243.806 155.899 244.419 155.197 244.825L146.255 249.987C145.555 250.392 144.492 250.436 143.883 250.085Z" fill="#0B0813"/>
<path d="M155.581 256.839L148.006 252.466C147.397 252.115 147.475 251.501 148.177 251.096L157.119 245.934C157.821 245.528 158.883 245.485 159.491 245.836L167.065 250.209C167.674 250.56 167.597 251.174 166.894 251.579L157.954 256.741C157.252 257.145 156.19 257.19 155.581 256.839Z" fill="#0B0813"/>
<path d="M167.28 263.592L159.705 259.219C159.098 258.868 159.174 258.254 159.876 257.849L168.818 252.687C169.52 252.281 170.582 252.238 171.19 252.589L178.765 256.962C179.372 257.313 179.296 257.926 178.594 258.332L169.652 263.494C168.95 263.899 167.887 263.943 167.28 263.592Z" fill="#0B0813"/>
<path d="M183.459 258.015L175.884 253.642C175.275 253.291 175.353 252.678 176.055 252.272L183.56 247.94C184.262 247.534 185.325 247.491 185.932 247.842L193.507 252.215C194.114 252.566 194.038 253.179 193.336 253.585L185.831 257.917C185.129 258.323 184.066 258.366 183.459 258.015Z" fill="#0B0813"/>
<path d="M195.156 264.769L187.582 260.396C186.973 260.045 187.051 259.432 187.753 259.026L195.259 254.694C195.961 254.288 197.024 254.245 197.631 254.596L205.206 258.969C205.815 259.32 205.737 259.933 205.035 260.339L197.529 264.671C196.826 265.075 195.764 265.12 195.156 264.769Z" fill="#0B0813"/>
<path d="M206.854 271.522L199.279 267.149C198.67 266.798 198.748 266.184 199.45 265.779L206.956 261.446C207.658 261.041 208.721 260.997 209.328 261.349L216.903 265.722C217.512 266.073 217.434 266.686 216.732 267.092L209.226 271.424C208.525 271.83 207.462 271.873 206.854 271.522Z" fill="#0B0813"/>
<path d="M218.551 278.276L210.976 273.904C210.367 273.552 210.445 272.939 211.147 272.533L218.652 268.201C219.354 267.795 220.417 267.752 221.024 268.103L228.599 272.476C229.208 272.827 229.13 273.441 228.428 273.846L220.923 278.179C220.223 278.582 219.16 278.628 218.551 278.276Z" fill="#0B0813"/>
<path d="M230.25 285.029L222.675 280.656C222.066 280.305 222.144 279.692 222.846 279.286L230.353 274.954C231.055 274.548 232.117 274.505 232.725 274.856L240.299 279.229C240.907 279.58 240.831 280.194 240.128 280.599L232.624 284.932C231.92 285.337 230.857 285.38 230.25 285.029Z" fill="#0B0813"/>
<path d="M241.948 291.784L234.373 287.411C233.764 287.06 233.842 286.446 234.544 286.041L242.049 281.708C242.751 281.303 243.813 281.259 244.421 281.61L251.995 285.983C252.603 286.334 252.526 286.948 251.824 287.353L244.32 291.686C243.617 292.091 242.555 292.135 241.948 291.784Z" fill="#0B0813"/>
<path d="M253.645 298.538L246.07 294.165C245.461 293.814 245.539 293.201 246.241 292.795L253.746 288.463C254.448 288.057 255.511 288.014 256.118 288.365L263.693 292.738C264.3 293.089 264.224 293.702 263.522 294.108L256.015 298.44C255.316 298.844 254.254 298.889 253.645 298.538Z" fill="#0B0813"/>
<path d="M265.343 305.291L257.768 300.918C257.161 300.567 257.237 299.953 257.939 299.548L265.445 295.215C266.147 294.81 267.21 294.767 267.817 295.118L275.392 299.491C276.001 299.842 275.923 300.455 275.221 300.861L267.715 305.193C267.014 305.599 265.951 305.642 265.343 305.291Z" fill="#0B0813"/>
<path d="M277.042 312.045L269.467 307.673C268.86 307.321 268.936 306.708 269.638 306.302L277.144 301.97C277.846 301.564 278.909 301.521 279.516 301.872L287.091 306.245C287.7 306.596 287.622 307.21 286.92 307.615L279.415 311.948C278.712 312.353 277.649 312.397 277.042 312.045Z" fill="#0B0813"/>
<path d="M288.739 318.798L281.164 314.426C280.555 314.074 280.633 313.461 281.335 313.055L288.84 308.723C289.542 308.317 290.605 308.274 291.212 308.625L298.787 312.998C299.394 313.349 299.318 313.963 298.616 314.368L291.109 318.702C290.409 319.106 289.346 319.15 288.739 318.798Z" fill="#0B0813"/>
<path d="M200.694 254.818L193.12 250.445C192.511 250.094 192.588 249.48 193.291 249.075L200.795 244.742C201.497 244.337 202.56 244.293 203.169 244.644L210.744 249.017C211.351 249.368 211.275 249.982 210.573 250.388L203.068 254.72C202.364 255.124 201.302 255.169 200.694 254.818Z" fill="#0B0813"/>
<path d="M188.821 247.963L181.247 243.59C180.639 243.239 180.716 242.625 181.418 242.22L188.922 237.885C189.625 237.48 190.687 237.436 191.296 237.788L198.871 242.16C199.48 242.512 199.402 243.125 198.7 243.531L191.195 247.863C190.493 248.27 189.43 248.314 188.821 247.963Z" fill="#0B0813"/>
<path d="M176.93 241.096L160.615 231.678C160.008 231.327 160.084 230.713 160.786 230.308L168.291 225.975C168.993 225.57 170.056 225.526 170.663 225.877L186.977 235.296C187.586 235.647 187.509 236.261 186.807 236.666L179.302 240.999C178.601 241.404 177.539 241.448 176.93 241.096Z" fill="#0B0813"/>
<path d="M185.242 232.747L172.002 225.102C171.393 224.751 171.471 224.138 172.173 223.732L179.678 219.398C180.38 218.993 181.442 218.949 182.05 219.3L195.29 226.945C195.897 227.296 195.821 227.909 195.119 228.315L187.614 232.647C186.912 233.054 185.85 233.099 185.242 232.747Z" fill="#0B0813"/>
<path d="M212.392 261.571L204.817 257.198C204.208 256.847 204.286 256.233 204.988 255.828L212.493 251.494C213.195 251.088 214.258 251.045 214.865 251.396L222.44 255.769C223.047 256.12 222.971 256.734 222.269 257.139L214.764 261.472C214.063 261.879 213.001 261.922 212.392 261.571Z" fill="#0B0813"/>
<path d="M224.089 268.325L216.514 263.952C215.907 263.601 215.983 262.988 216.685 262.582L224.19 258.248C224.892 257.843 225.955 257.799 226.562 258.15L234.137 262.523C234.746 262.874 234.668 263.488 233.966 263.893L226.46 268.226C225.761 268.633 224.698 268.676 224.089 268.325Z" fill="#0B0813"/>
<path d="M235.788 275.078L228.214 270.705C227.605 270.354 227.682 269.741 228.385 269.335L235.891 265.003C236.593 264.597 237.656 264.554 238.263 264.905L245.838 269.278C246.447 269.629 246.369 270.242 245.667 270.648L238.16 274.98C237.458 275.386 236.396 275.429 235.788 275.078Z" fill="#0B0813"/>
<path d="M247.485 281.833L239.911 277.46C239.302 277.109 239.38 276.495 240.082 276.09L247.588 271.757C248.29 271.352 249.353 271.308 249.96 271.659L257.535 276.032C258.142 276.383 258.066 276.997 257.364 277.402L249.859 281.735C249.155 282.14 248.093 282.184 247.485 281.833Z" fill="#0B0813"/>
<path d="M259.183 288.587L251.609 284.214C251.001 283.863 251.077 283.249 251.779 282.844L259.284 278.511C259.986 278.106 261.049 278.062 261.656 278.414L269.231 282.786C269.838 283.138 269.762 283.751 269.06 284.157L261.554 288.489C260.855 288.893 259.792 288.938 259.183 288.587Z" fill="#0B0813"/>
<path d="M270.88 295.339L263.306 290.966C262.697 290.615 262.774 290.002 263.477 289.596L270.983 285.264C271.685 284.858 272.748 284.815 273.355 285.166L280.93 289.539C281.539 289.89 281.461 290.504 280.759 290.909L273.252 295.242C272.552 295.647 271.489 295.691 270.88 295.339Z" fill="#0B0813"/>
<path d="M282.579 302.094L275.005 297.721C274.396 297.37 274.473 296.756 275.176 296.351L282.682 292.018C283.384 291.613 284.447 291.569 285.054 291.92L292.629 296.293C293.238 296.644 293.16 297.258 292.458 297.663L284.953 301.996C284.249 302.4 283.187 302.445 282.579 302.094Z" fill="#0B0813"/>
<path d="M294.277 308.847L286.702 304.474C286.093 304.123 286.171 303.509 286.873 303.104L294.379 298.771C295.082 298.366 296.144 298.322 296.752 298.673L304.326 303.046C304.935 303.397 304.857 304.011 304.155 304.416L296.651 308.749C295.948 309.154 294.886 309.199 294.277 308.847Z" fill="#0B0813"/>
<path d="M305.974 315.601L298.4 311.228C297.792 310.877 297.869 310.264 298.571 309.858L306.075 305.526C306.778 305.12 307.84 305.077 308.449 305.428L316.024 309.801C316.631 310.152 316.555 310.765 315.853 311.171L308.348 315.503C307.646 315.909 306.583 315.952 305.974 315.601Z" fill="#0B0813"/>
<path d="M326.77 327.608L310.243 318.065C309.636 317.714 309.712 317.1 310.414 316.695L317.921 312.36C318.623 311.955 319.685 311.912 320.293 312.263L336.82 321.805C337.429 322.157 337.351 322.77 336.649 323.176L329.144 327.508C328.442 327.915 327.379 327.959 326.77 327.608Z" fill="#0B0813"/>
<path d="M349.545 314.46L335.596 306.405C334.987 306.054 335.064 305.44 335.766 305.035L343.273 300.702C343.975 300.297 345.037 300.253 345.645 300.604L359.595 308.659C360.202 309.01 360.126 309.624 359.424 310.029L351.918 314.362C351.215 314.767 350.153 314.811 349.545 314.46Z" fill="#0B0813"/>
<path d="M232.877 260.251L225.302 255.878C224.694 255.527 224.771 254.913 225.473 254.508L232.978 250.175C233.68 249.77 234.743 249.726 235.352 250.077L242.926 254.45C243.535 254.801 243.458 255.415 242.755 255.82L235.251 260.153C234.549 260.557 233.486 260.602 232.877 260.251Z" fill="#0B0813"/>
<path d="M220.889 253.328L213.315 248.955C212.706 248.604 212.783 247.991 213.485 247.585L220.992 243.253C221.694 242.847 222.756 242.804 223.364 243.155L230.938 247.528C231.547 247.879 231.47 248.492 230.768 248.898L223.261 253.23C222.559 253.634 221.497 253.679 220.889 253.328Z" fill="#0B0813"/>
<path d="M208.9 246.406L201.325 242.033C200.716 241.682 200.794 241.068 201.496 240.663L209.002 236.33C209.704 235.925 210.767 235.881 211.374 236.232L218.949 240.605C219.558 240.956 219.48 241.57 218.778 241.975L211.273 246.308C210.569 246.713 209.508 246.757 208.9 246.406Z" fill="#0B0813"/>
<path d="M196.912 239.484L189.337 235.111C188.73 234.76 188.806 234.146 189.508 233.741L197.013 229.408C197.715 229.003 198.777 228.959 199.385 229.31L206.959 233.683C207.567 234.034 207.491 234.648 206.789 235.054L199.282 239.386C198.582 239.792 197.519 239.835 196.912 239.484Z" fill="#0B0813"/>
<path d="M244.576 267.003L237.002 262.63C236.393 262.279 236.47 261.666 237.172 261.26L244.679 256.926C245.381 256.52 246.443 256.477 247.051 256.828L254.625 261.201C255.234 261.552 255.157 262.166 254.455 262.571L246.948 266.905C246.246 267.311 245.184 267.354 244.576 267.003Z" fill="#0B0813"/>
<path d="M256.273 273.757L248.699 269.384C248.09 269.033 248.167 268.42 248.869 268.014L256.374 263.682C257.076 263.276 258.139 263.233 258.746 263.584L266.321 267.957C266.93 268.308 266.852 268.922 266.15 269.327L258.644 273.661C257.943 274.065 256.881 274.109 256.273 273.757Z" fill="#0B0813"/>
<path d="M267.971 280.51L260.396 276.137C259.787 275.786 259.865 275.173 260.567 274.767L268.072 270.433C268.774 270.028 269.836 269.984 270.445 270.335L278.02 274.708C278.627 275.059 278.551 275.673 277.849 276.078L270.344 280.411C269.641 280.818 268.58 280.862 267.971 280.51Z" fill="#0B0813"/>
<path d="M279.668 287.265L272.094 282.892C271.485 282.541 271.562 281.927 272.264 281.522L279.769 277.188C280.471 276.782 281.534 276.739 282.141 277.09L289.716 281.463C290.325 281.814 290.247 282.427 289.545 282.833L282.04 287.167C281.34 287.572 280.277 287.616 279.668 287.265Z" fill="#0B0813"/>
<path d="M291.367 294.019L283.793 289.646C283.184 289.295 283.261 288.682 283.963 288.276L291.468 283.944C292.17 283.538 293.233 283.495 293.84 283.846L301.415 288.219C302.024 288.57 301.946 289.183 301.244 289.589L293.738 293.923C293.037 294.325 291.975 294.37 291.367 294.019Z" fill="#0B0813"/>
<path d="M303.065 300.772L295.49 296.399C294.881 296.048 294.959 295.435 295.661 295.029L303.167 290.695C303.869 290.29 304.932 290.246 305.539 290.597L313.114 294.97C313.723 295.321 313.645 295.935 312.943 296.34L305.437 300.673C304.735 301.08 303.672 301.123 303.065 300.772Z" fill="#0B0813"/>
<path d="M314.762 307.526L307.188 303.154C306.58 302.802 306.656 302.189 307.359 301.783L314.865 297.451C315.567 297.045 316.63 297.002 317.237 297.353L324.812 301.726C325.419 302.077 325.343 302.691 324.641 303.096L317.136 307.429C316.434 307.834 315.371 307.878 314.762 307.526Z" fill="#0B0813"/>
<path d="M326.461 314.279L318.887 309.906C318.279 309.555 318.355 308.942 319.058 308.536L326.564 304.204C327.266 303.798 328.329 303.755 328.936 304.106L336.511 308.479C337.118 308.83 337.042 309.444 336.34 309.849L328.833 314.182C328.131 314.587 327.069 314.631 326.461 314.279Z" fill="#0B0813"/>
<path d="M338.159 321.034L330.584 316.661C329.975 316.31 330.053 315.696 330.755 315.291L338.26 310.958C338.962 310.553 340.024 310.509 340.632 310.86L348.206 315.233C348.815 315.584 348.739 316.198 348.036 316.603L340.529 320.937C339.829 321.341 338.766 321.385 338.159 321.034Z" fill="#0B0813"/>
<path d="M226.718 243.545L219.143 239.172C218.534 238.821 218.612 238.207 219.314 237.801L226.818 233.469C227.521 233.063 228.583 233.02 229.192 233.371L236.767 237.744C237.376 238.095 237.298 238.709 236.596 239.114L229.091 243.447C228.387 243.852 227.326 243.896 226.718 243.545Z" fill="#0B0813"/>
<path d="M215.078 236.824L207.503 232.451C206.896 232.1 206.972 231.487 207.674 231.081L215.178 226.747C215.881 226.342 216.943 226.298 217.552 226.649L225.127 231.022C225.736 231.373 225.658 231.987 224.956 232.392L217.451 236.725C216.749 237.132 215.686 237.175 215.078 236.824Z" fill="#0B0813"/>
<path d="M203.439 230.104L195.865 225.731C195.257 225.38 195.333 224.767 196.035 224.361L203.54 220.027C204.242 219.622 205.305 219.578 205.912 219.929L213.487 224.302C214.094 224.653 214.018 225.267 213.316 225.672L205.811 230.006C205.109 230.412 204.047 230.455 203.439 230.104Z" fill="#0B0813"/>
<path d="M191.799 223.384L184.225 219.011C183.617 218.66 183.693 218.046 184.396 217.641L191.9 213.308C192.602 212.903 193.665 212.859 194.272 213.21L201.847 217.583C202.456 217.934 202.38 218.548 201.676 218.953L194.171 223.286C193.469 223.691 192.407 223.735 191.799 223.384Z" fill="#0B0813"/>
<path d="M203.769 216.474L196.194 212.101C195.585 211.75 195.663 211.137 196.365 210.731L198.846 209.299C199.548 208.894 200.61 208.85 201.218 209.201L208.792 213.574C209.401 213.925 209.324 214.539 208.622 214.944L206.141 216.376C205.438 216.78 204.376 216.825 203.769 216.474Z" fill="#0B0813"/>
<path d="M218.958 225.243L211.384 220.87C210.776 220.519 210.852 219.906 211.554 219.5L214.035 218.068C214.737 217.663 215.8 217.619 216.407 217.97L223.982 222.343C224.591 222.694 224.513 223.308 223.811 223.713L221.33 225.146C220.628 225.551 219.566 225.594 218.958 225.243Z" fill="#0B0813"/>
<path d="M230.548 231.936L222.974 227.563C222.365 227.212 222.443 226.598 223.145 226.193L225.626 224.76C226.328 224.355 227.39 224.311 227.999 224.663L235.574 229.035C236.181 229.387 236.105 230 235.403 230.406L232.922 231.838C232.22 232.243 231.157 232.287 230.548 231.936Z" fill="#0B0813"/>
<path d="M242.14 238.628L234.566 234.255C233.958 233.904 234.034 233.291 234.737 232.885L237.217 231.453C237.92 231.047 238.982 231.004 239.589 231.355L247.164 235.728C247.773 236.079 247.695 236.693 246.993 237.098L244.512 238.53C243.81 238.936 242.748 238.979 242.14 238.628Z" fill="#0B0813"/>
<path d="M253.73 245.32L246.156 240.947C245.548 240.596 245.625 239.982 246.327 239.577L248.808 238.145C249.51 237.739 250.572 237.696 251.18 238.047L258.754 242.42C259.363 242.771 259.286 243.384 258.583 243.79L256.103 245.222C255.402 245.628 254.339 245.671 253.73 245.32Z" fill="#0B0813"/>
<path d="M318.442 282.682L310.868 278.309C310.26 277.958 310.336 277.345 311.039 276.939L313.519 275.507C314.222 275.102 315.284 275.058 315.892 275.409L323.466 279.782C324.075 280.133 323.997 280.747 323.295 281.152L320.814 282.584C320.114 282.988 319.051 283.033 318.442 282.682Z" fill="#0B0813"/>
<path d="M330.034 289.373L322.46 285C321.851 284.649 321.928 284.035 322.63 283.63L325.111 282.197C325.813 281.792 326.876 281.748 327.485 282.1L335.06 286.472C335.669 286.824 335.591 287.437 334.889 287.843L332.408 289.275C331.704 289.68 330.642 289.725 330.034 289.373Z" fill="#0B0813"/>
<path d="M341.626 296.065L334.051 291.692C333.442 291.341 333.52 290.728 334.222 290.322L336.703 288.89C337.405 288.484 338.468 288.441 339.075 288.792L346.65 293.165C347.257 293.516 347.181 294.13 346.479 294.535L343.998 295.967C343.296 296.373 342.233 296.418 341.626 296.065Z" fill="#0B0813"/>
<path d="M353.216 302.757L345.641 298.384C345.032 298.033 345.11 297.419 345.812 297.014L348.293 295.582C348.995 295.176 350.058 295.133 350.665 295.484L358.24 299.857C358.849 300.208 358.771 300.821 358.069 301.227L355.588 302.659C354.886 303.065 353.825 303.108 353.216 302.757Z" fill="#0B0813"/>
<path d="M238.415 250.299L230.841 245.926C230.233 245.575 230.309 244.961 231.011 244.556L238.516 240.223C239.218 239.818 240.281 239.774 240.888 240.125L248.463 244.498C249.07 244.849 248.994 245.463 248.292 245.869L240.787 250.201C240.087 250.605 239.024 250.65 238.415 250.299Z" fill="#0B0813"/>
<path d="M250.114 257.052L242.539 252.679C241.93 252.328 242.008 251.714 242.71 251.309L250.215 246.976C250.917 246.571 251.98 246.527 252.587 246.878L260.162 251.251C260.771 251.602 260.693 252.216 259.991 252.621L252.486 256.954C251.784 257.359 250.721 257.403 250.114 257.052Z" fill="#0B0813"/>
<path d="M261.812 263.806L254.237 259.433C253.628 259.082 253.706 258.469 254.408 258.063L261.913 253.731C262.615 253.325 263.677 253.282 264.285 253.633L271.859 258.006C272.468 258.357 272.39 258.97 271.688 259.376L264.182 263.71C263.481 264.114 262.42 264.157 261.812 263.806Z" fill="#0B0813"/>
<path d="M273.509 270.561L265.934 266.188C265.325 265.837 265.403 265.223 266.105 264.818L273.612 260.485C274.314 260.08 275.376 260.036 275.984 260.387L283.558 264.76C284.167 265.111 284.09 265.725 283.387 266.13L275.883 270.463C275.181 270.867 274.118 270.912 273.509 270.561Z" fill="#0B0813"/>
<path d="M285.208 277.314L277.633 272.941C277.026 272.59 277.102 271.976 277.804 271.57L285.31 267.238C286.012 266.832 287.075 266.789 287.682 267.14L295.257 271.513C295.864 271.864 295.788 272.478 295.086 272.883L287.581 277.217C286.878 277.621 285.815 277.665 285.208 277.314Z" fill="#0B0813"/>
<path d="M296.905 284.068L289.331 279.695C288.722 279.344 288.799 278.73 289.501 278.325L297.008 273.992C297.71 273.587 298.772 273.543 299.38 273.894L306.954 278.267C307.562 278.618 307.486 279.232 306.784 279.638L299.277 283.972C298.575 284.374 297.513 284.419 296.905 284.068Z" fill="#0B0813"/>
<path d="M308.603 290.82L301.028 286.447C300.419 286.096 300.497 285.483 301.199 285.077L308.705 280.745C309.407 280.339 310.47 280.296 311.077 280.647L318.652 285.02C319.261 285.371 319.183 285.985 318.481 286.39L310.975 290.723C310.273 291.128 309.212 291.171 308.603 290.82Z" fill="#0B0813"/>
<path d="M320.3 297.575L312.726 293.202C312.117 292.851 312.194 292.237 312.896 291.832L320.401 287.499C321.103 287.094 322.166 287.05 322.773 287.401L330.348 291.774C330.957 292.125 330.879 292.739 330.177 293.144L322.672 297.479C321.972 297.882 320.909 297.926 320.3 297.575Z" fill="#0B0813"/>
<path d="M331.999 304.328L324.425 299.955C323.817 299.604 323.893 298.99 324.596 298.585L332.102 294.252C332.804 293.847 333.866 293.803 334.474 294.154L342.048 298.527C342.657 298.878 342.58 299.492 341.878 299.897L334.373 304.23C333.669 304.635 332.607 304.68 331.999 304.328Z" fill="#0B0813"/>
<path d="M171.538 251.132L149.229 238.252C148.621 237.901 148.697 237.287 149.399 236.882L156.904 232.549C157.606 232.144 158.669 232.101 159.278 232.452L181.587 245.331C182.194 245.682 182.118 246.296 181.416 246.701L173.91 251.034C173.208 251.439 172.145 251.484 171.538 251.132Z" fill="#0B0813"/>
<path d="M315.248 334.104L292.939 321.225C292.332 320.874 292.408 320.26 293.11 319.855L300.616 315.522C301.319 315.117 302.381 315.073 302.989 315.424L325.298 328.304C325.907 328.655 325.829 329.269 325.127 329.674L317.62 334.007C316.918 334.41 315.856 334.456 315.248 334.104Z" fill="#0B0813"/>
<path d="M268.466 322.012L260.892 317.639C260.283 317.288 260.361 316.675 261.063 316.269L270.004 311.107C270.707 310.702 271.769 310.658 272.376 311.009L279.951 315.382C280.558 315.733 280.482 316.347 279.78 316.752L270.839 321.914C270.138 322.32 269.075 322.365 268.466 322.012Z" fill="#0B0813"/>
<path d="M183.516 272.967L171.402 265.973C170.795 265.622 170.871 265.009 171.573 264.603L180.515 259.441C181.217 259.036 182.28 258.992 182.887 259.343L195.001 266.337C195.61 266.688 195.532 267.301 194.83 267.707L185.888 272.869C185.188 273.274 184.125 273.318 183.516 272.967Z" fill="#0B0813"/>
<path d="M257.196 315.506L245.082 308.513C244.473 308.162 244.551 307.548 245.253 307.143L254.195 301.981C254.897 301.575 255.96 301.532 256.567 301.883L268.681 308.876C269.288 309.227 269.212 309.841 268.51 310.247L259.57 315.409C258.866 315.812 257.804 315.858 257.196 315.506Z" fill="#0B0813"/>
<path d="M200.394 282.712L188.28 275.718C187.673 275.367 187.749 274.753 188.451 274.348L197.393 269.186C198.095 268.78 199.158 268.737 199.765 269.088L211.879 276.081C212.488 276.433 212.41 277.046 211.708 277.452L202.766 282.614C202.064 283.018 201.002 283.063 200.394 282.712Z" fill="#0B0813"/>
<path d="M199.846 269.135L252.516 299.543C253.17 299.921 253.17 300.533 252.516 300.91L243.399 306.174C242.745 306.551 241.685 306.551 241.031 306.174L188.362 275.765L199.846 269.135Z" fill="#0B0813"/>
<path d="M301.16 334.258L309.598 339.13C310.097 339.417 310.035 339.92 309.459 340.253L305.8 342.364C305.225 342.696 304.354 342.732 303.855 342.445L295.419 337.573C294.92 337.286 294.982 336.782 295.558 336.45L299.215 334.339C299.792 334.006 300.661 333.971 301.16 334.258Z" fill="#0B0813"/>
<path d="M289.365 327.448L297.803 332.32C298.302 332.607 298.24 333.11 297.664 333.443L294.007 335.554C293.43 335.886 292.56 335.922 292.062 335.635L283.625 330.763C283.126 330.476 283.189 329.972 283.765 329.64L287.422 327.529C287.996 327.198 288.866 327.161 289.365 327.448Z" fill="#0B0813"/>
<path d="M277.668 320.695L286.106 325.567C286.605 325.854 286.542 326.357 285.966 326.69L282.309 328.801C281.733 329.133 280.863 329.169 280.364 328.882L271.926 324.01C271.427 323.723 271.49 323.219 272.066 322.887L275.723 320.776C276.299 320.443 277.169 320.408 277.668 320.695Z" fill="#0B0813"/>
<path d="M295.826 323.72L304.263 328.591C304.761 328.879 304.699 329.382 304.123 329.714L300.464 331.825C299.89 332.158 299.018 332.194 298.519 331.906L290.081 327.035C289.582 326.747 289.645 326.244 290.221 325.912L293.879 323.8C294.456 323.468 295.327 323.431 295.826 323.72Z" fill="#0B0813"/>
</g>
<g opacity="0.4">
<path d="M143.883 250.085L136.309 245.712C135.7 245.361 135.777 244.747 136.479 244.341L145.42 239.179C146.122 238.774 147.184 238.73 147.793 239.081L155.368 243.454C155.977 243.806 155.899 244.419 155.197 244.825L146.255 249.987C145.555 250.392 144.492 250.436 143.883 250.085Z" fill="#0B0813"/>
<path d="M155.581 256.839L148.006 252.466C147.397 252.115 147.475 251.501 148.177 251.096L157.119 245.934C157.821 245.528 158.883 245.485 159.491 245.836L167.065 250.209C167.674 250.56 167.597 251.174 166.894 251.579L157.954 256.741C157.252 257.145 156.19 257.19 155.581 256.839Z" fill="#0B0813"/>
<path d="M167.28 263.592L159.705 259.219C159.098 258.868 159.174 258.254 159.876 257.849L168.818 252.687C169.52 252.281 170.582 252.238 171.19 252.589L178.765 256.962C179.372 257.313 179.296 257.926 178.594 258.332L169.652 263.494C168.95 263.899 167.887 263.943 167.28 263.592Z" fill="#0B0813"/>
<path d="M183.459 258.015L175.884 253.642C175.275 253.291 175.353 252.678 176.055 252.272L183.56 247.94C184.262 247.534 185.325 247.491 185.932 247.842L193.507 252.215C194.114 252.566 194.038 253.179 193.336 253.585L185.831 257.917C185.129 258.323 184.066 258.366 183.459 258.015Z" fill="#0B0813"/>
<path d="M195.156 264.769L187.582 260.396C186.973 260.045 187.051 259.432 187.753 259.026L195.259 254.694C195.961 254.288 197.024 254.245 197.631 254.596L205.206 258.969C205.815 259.32 205.737 259.933 205.035 260.339L197.529 264.671C196.826 265.075 195.764 265.12 195.156 264.769Z" fill="#0B0813"/>
<path d="M206.854 271.522L199.279 267.149C198.67 266.798 198.748 266.184 199.45 265.779L206.956 261.446C207.658 261.041 208.721 260.997 209.328 261.349L216.903 265.722C217.512 266.073 217.434 266.686 216.732 267.092L209.226 271.424C208.525 271.83 207.462 271.873 206.854 271.522Z" fill="#0B0813"/>
<path d="M218.551 278.276L210.976 273.904C210.367 273.552 210.445 272.939 211.147 272.533L218.652 268.201C219.354 267.795 220.417 267.752 221.024 268.103L228.599 272.476C229.208 272.827 229.13 273.441 228.428 273.846L220.923 278.179C220.223 278.582 219.16 278.628 218.551 278.276Z" fill="#0B0813"/>
<path d="M230.25 285.029L222.675 280.656C222.066 280.305 222.144 279.692 222.846 279.286L230.353 274.954C231.055 274.548 232.117 274.505 232.725 274.856L240.299 279.229C240.907 279.58 240.831 280.194 240.128 280.599L232.624 284.932C231.92 285.337 230.857 285.38 230.25 285.029Z" fill="#0B0813"/>
<path d="M241.948 291.784L234.373 287.411C233.764 287.06 233.842 286.446 234.544 286.041L242.049 281.708C242.751 281.303 243.813 281.259 244.421 281.61L251.995 285.983C252.603 286.334 252.526 286.948 251.824 287.353L244.32 291.686C243.617 292.091 242.555 292.135 241.948 291.784Z" fill="#0B0813"/>
<path d="M253.645 298.538L246.07 294.165C245.461 293.814 245.539 293.201 246.241 292.795L253.746 288.463C254.448 288.057 255.511 288.014 256.118 288.365L263.693 292.738C264.3 293.089 264.224 293.702 263.522 294.108L256.015 298.44C255.316 298.844 254.254 298.889 253.645 298.538Z" fill="#0B0813"/>
<path d="M265.343 305.291L257.768 300.918C257.161 300.567 257.237 299.953 257.939 299.548L265.445 295.215C266.147 294.81 267.21 294.767 267.817 295.118L275.392 299.491C276.001 299.842 275.923 300.455 275.221 300.861L267.715 305.193C267.014 305.599 265.951 305.642 265.343 305.291Z" fill="#0B0813"/>
<path d="M277.042 312.045L269.467 307.673C268.86 307.321 268.936 306.708 269.638 306.302L277.144 301.97C277.846 301.564 278.909 301.521 279.516 301.872L287.091 306.245C287.7 306.596 287.622 307.21 286.92 307.615L279.415 311.948C278.712 312.353 277.649 312.397 277.042 312.045Z" fill="#0B0813"/>
<path d="M288.739 318.798L281.164 314.426C280.555 314.074 280.633 313.461 281.335 313.055L288.84 308.723C289.542 308.317 290.605 308.274 291.212 308.625L298.787 312.998C299.394 313.349 299.318 313.963 298.616 314.368L291.109 318.702C290.409 319.106 289.346 319.15 288.739 318.798Z" fill="#0B0813"/>
<path d="M200.694 254.818L193.12 250.445C192.511 250.094 192.588 249.48 193.291 249.075L200.795 244.742C201.497 244.337 202.56 244.293 203.169 244.644L210.744 249.017C211.351 249.368 211.275 249.982 210.573 250.388L203.068 254.72C202.364 255.124 201.302 255.169 200.694 254.818Z" fill="#0B0813"/>
<path d="M188.821 247.963L181.247 243.59C180.639 243.239 180.716 242.625 181.418 242.22L188.922 237.885C189.625 237.48 190.687 237.436 191.296 237.788L198.871 242.16C199.48 242.512 199.402 243.125 198.7 243.531L191.195 247.863C190.493 248.27 189.43 248.314 188.821 247.963Z" fill="#0B0813"/>
<path d="M176.93 241.096L160.615 231.678C160.008 231.327 160.084 230.713 160.786 230.308L168.291 225.975C168.993 225.57 170.056 225.526 170.663 225.877L186.977 235.296C187.586 235.647 187.509 236.261 186.807 236.666L179.302 240.999C178.601 241.404 177.539 241.448 176.93 241.096Z" fill="#0B0813"/>
<path d="M185.242 232.747L172.002 225.102C171.393 224.751 171.471 224.138 172.173 223.732L179.678 219.398C180.38 218.993 181.442 218.949 182.05 219.3L195.29 226.945C195.897 227.296 195.821 227.909 195.119 228.315L187.614 232.647C186.912 233.054 185.85 233.099 185.242 232.747Z" fill="#0B0813"/>
<path d="M212.392 261.571L204.817 257.198C204.208 256.847 204.286 256.233 204.988 255.828L212.493 251.494C213.195 251.088 214.258 251.045 214.865 251.396L222.44 255.769C223.047 256.12 222.971 256.734 222.269 257.139L214.764 261.472C214.063 261.879 213.001 261.922 212.392 261.571Z" fill="#0B0813"/>
<path d="M224.089 268.325L216.514 263.952C215.907 263.601 215.983 262.988 216.685 262.582L224.19 258.248C224.892 257.843 225.955 257.799 226.562 258.15L234.137 262.523C234.746 262.874 234.668 263.488 233.966 263.893L226.46 268.226C225.761 268.633 224.698 268.676 224.089 268.325Z" fill="#0B0813"/>
<path d="M235.788 275.078L228.214 270.705C227.605 270.354 227.682 269.741 228.385 269.335L235.891 265.003C236.593 264.597 237.656 264.554 238.263 264.905L245.838 269.278C246.447 269.629 246.369 270.242 245.667 270.648L238.16 274.98C237.458 275.386 236.396 275.429 235.788 275.078Z" fill="#0B0813"/>
<path d="M247.485 281.833L239.911 277.46C239.302 277.109 239.38 276.495 240.082 276.09L247.588 271.757C248.29 271.352 249.353 271.308 249.96 271.659L257.535 276.032C258.142 276.383 258.066 276.997 257.364 277.402L249.859 281.735C249.155 282.14 248.093 282.184 247.485 281.833Z" fill="#0B0813"/>
<path d="M259.183 288.587L251.609 284.214C251.001 283.863 251.077 283.249 251.779 282.844L259.284 278.511C259.986 278.106 261.049 278.062 261.656 278.414L269.231 282.786C269.838 283.138 269.762 283.751 269.06 284.157L261.554 288.489C260.855 288.893 259.792 288.938 259.183 288.587Z" fill="#0B0813"/>
<path d="M270.88 295.339L263.306 290.966C262.697 290.615 262.774 290.002 263.477 289.596L270.983 285.264C271.685 284.858 272.748 284.815 273.355 285.166L280.93 289.539C281.539 289.89 281.461 290.504 280.759 290.909L273.252 295.242C272.552 295.647 271.489 295.691 270.88 295.339Z" fill="#0B0813"/>
<path d="M282.579 302.094L275.005 297.721C274.396 297.37 274.473 296.756 275.176 296.351L282.682 292.018C283.384 291.613 284.447 291.569 285.054 291.92L292.629 296.293C293.238 296.644 293.16 297.258 292.458 297.663L284.953 301.996C284.249 302.4 283.187 302.445 282.579 302.094Z" fill="#0B0813"/>
<path d="M294.277 308.847L286.702 304.474C286.093 304.123 286.171 303.509 286.873 303.104L294.379 298.771C295.082 298.366 296.144 298.322 296.752 298.673L304.326 303.046C304.935 303.397 304.857 304.011 304.155 304.416L296.651 308.749C295.948 309.154 294.886 309.199 294.277 308.847Z" fill="#0B0813"/>
<path d="M305.974 315.601L298.4 311.228C297.792 310.877 297.869 310.264 298.571 309.858L306.075 305.526C306.778 305.12 307.84 305.077 308.449 305.428L316.024 309.801C316.631 310.152 316.555 310.765 315.853 311.171L308.348 315.503C307.646 315.909 306.583 315.952 305.974 315.601Z" fill="#0B0813"/>
<path d="M326.77 327.608L310.243 318.065C309.636 317.714 309.712 317.1 310.414 316.695L317.921 312.36C318.623 311.955 319.685 311.912 320.293 312.263L336.82 321.805C337.429 322.157 337.351 322.77 336.649 323.176L329.144 327.508C328.442 327.915 327.379 327.959 326.77 327.608Z" fill="#0B0813"/>
<path d="M349.545 314.46L335.596 306.405C334.987 306.054 335.064 305.44 335.766 305.035L343.273 300.702C343.975 300.297 345.037 300.253 345.645 300.604L359.595 308.659C360.202 309.01 360.126 309.624 359.424 310.029L351.918 314.362C351.215 314.767 350.153 314.811 349.545 314.46Z" fill="#0B0813"/>
<path d="M232.877 260.251L225.302 255.878C224.694 255.527 224.771 254.913 225.473 254.508L232.978 250.175C233.68 249.77 234.743 249.726 235.352 250.077L242.926 254.45C243.535 254.801 243.458 255.415 242.755 255.82L235.251 260.153C234.549 260.557 233.486 260.602 232.877 260.251Z" fill="#0B0813"/>
<path d="M220.889 253.328L213.315 248.955C212.706 248.604 212.783 247.991 213.485 247.585L220.992 243.253C221.694 242.847 222.756 242.804 223.364 243.155L230.938 247.528C231.547 247.879 231.47 248.492 230.768 248.898L223.261 253.23C222.559 253.634 221.497 253.679 220.889 253.328Z" fill="#0B0813"/>
<path d="M208.9 246.406L201.325 242.033C200.716 241.682 200.794 241.068 201.496 240.663L209.002 236.33C209.704 235.925 210.767 235.881 211.374 236.232L218.949 240.605C219.558 240.956 219.48 241.57 218.778 241.975L211.273 246.308C210.569 246.713 209.508 246.757 208.9 246.406Z" fill="#0B0813"/>
<path d="M196.912 239.484L189.337 235.111C188.73 234.76 188.806 234.146 189.508 233.741L197.013 229.408C197.715 229.003 198.777 228.959 199.385 229.31L206.959 233.683C207.567 234.034 207.491 234.648 206.789 235.054L199.282 239.386C198.582 239.792 197.519 239.835 196.912 239.484Z" fill="#0B0813"/>
<path d="M244.576 267.003L237.002 262.63C236.393 262.279 236.47 261.666 237.172 261.26L244.679 256.926C245.381 256.52 246.443 256.477 247.051 256.828L254.625 261.201C255.234 261.552 255.157 262.166 254.455 262.571L246.948 266.905C246.246 267.311 245.184 267.354 244.576 267.003Z" fill="#0B0813"/>
<path d="M256.273 273.757L248.699 269.384C248.09 269.033 248.167 268.42 248.869 268.014L256.374 263.682C257.076 263.276 258.139 263.233 258.746 263.584L266.321 267.957C266.93 268.308 266.852 268.922 266.15 269.327L258.644 273.661C257.943 274.065 256.881 274.109 256.273 273.757Z" fill="#0B0813"/>
<path d="M267.971 280.51L260.396 276.137C259.787 275.786 259.865 275.173 260.567 274.767L268.072 270.433C268.774 270.028 269.836 269.984 270.445 270.335L278.02 274.708C278.627 275.059 278.551 275.673 277.849 276.078L270.344 280.411C269.641 280.818 268.58 280.862 267.971 280.51Z" fill="#0B0813"/>
<path d="M279.668 287.265L272.094 282.892C271.485 282.541 271.562 281.927 272.264 281.522L279.769 277.188C280.471 276.782 281.534 276.739 282.141 277.09L289.716 281.463C290.325 281.814 290.247 282.427 289.545 282.833L282.04 287.167C281.34 287.572 280.277 287.616 279.668 287.265Z" fill="#0B0813"/>
<path d="M291.367 294.019L283.793 289.646C283.184 289.295 283.261 288.682 283.963 288.276L291.468 283.944C292.17 283.538 293.233 283.495 293.84 283.846L301.415 288.219C302.024 288.57 301.946 289.183 301.244 289.589L293.738 293.923C293.037 294.325 291.975 294.37 291.367 294.019Z" fill="#0B0813"/>
<path d="M303.065 300.772L295.49 296.399C294.881 296.048 294.959 295.435 295.661 295.029L303.167 290.695C303.869 290.29 304.932 290.246 305.539 290.597L313.114 294.97C313.723 295.321 313.645 295.935 312.943 296.34L305.437 300.673C304.735 301.08 303.672 301.123 303.065 300.772Z" fill="#0B0813"/>
<path d="M314.762 307.526L307.188 303.154C306.58 302.802 306.656 302.189 307.359 301.783L314.865 297.451C315.567 297.045 316.63 297.002 317.237 297.353L324.812 301.726C325.419 302.077 325.343 302.691 324.641 303.096L317.136 307.429C316.434 307.834 315.371 307.878 314.762 307.526Z" fill="#0B0813"/>
<path d="M326.461 314.279L318.887 309.906C318.279 309.555 318.355 308.942 319.058 308.536L326.564 304.204C327.266 303.798 328.329 303.755 328.936 304.106L336.511 308.479C337.118 308.83 337.042 309.444 336.34 309.849L328.833 314.182C328.131 314.587 327.069 314.631 326.461 314.279Z" fill="#0B0813"/>
<path d="M338.159 321.034L330.584 316.661C329.975 316.31 330.053 315.696 330.755 315.291L338.26 310.958C338.962 310.553 340.024 310.509 340.632 310.86L348.206 315.233C348.815 315.584 348.739 316.198 348.036 316.603L340.529 320.937C339.829 321.341 338.766 321.385 338.159 321.034Z" fill="#0B0813"/>
<path d="M226.718 243.545L219.143 239.172C218.534 238.821 218.612 238.207 219.314 237.801L226.818 233.469C227.521 233.063 228.583 233.02 229.192 233.371L236.767 237.744C237.376 238.095 237.298 238.709 236.596 239.114L229.091 243.447C228.387 243.852 227.326 243.896 226.718 243.545Z" fill="#0B0813"/>
<path d="M215.078 236.824L207.503 232.451C206.896 232.1 206.972 231.487 207.674 231.081L215.178 226.747C215.881 226.342 216.943 226.298 217.552 226.649L225.127 231.022C225.736 231.373 225.658 231.987 224.956 232.392L217.451 236.725C216.749 237.132 215.686 237.175 215.078 236.824Z" fill="#0B0813"/>
<path d="M203.439 230.104L195.865 225.731C195.257 225.38 195.333 224.767 196.035 224.361L203.54 220.027C204.242 219.622 205.305 219.578 205.912 219.929L213.487 224.302C214.094 224.653 214.018 225.267 213.316 225.672L205.811 230.006C205.109 230.412 204.047 230.455 203.439 230.104Z" fill="#0B0813"/>
<path d="M191.799 223.384L184.225 219.011C183.617 218.66 183.693 218.046 184.396 217.641L191.9 213.308C192.602 212.903 193.665 212.859 194.272 213.21L201.847 217.583C202.456 217.934 202.38 218.548 201.676 218.953L194.171 223.286C193.469 223.691 192.407 223.735 191.799 223.384Z" fill="#0B0813"/>
<path d="M203.769 216.474L196.194 212.101C195.585 211.75 195.663 211.137 196.365 210.731L198.846 209.299C199.548 208.894 200.61 208.85 201.218 209.201L208.792 213.574C209.401 213.925 209.324 214.539 208.622 214.944L206.141 216.376C205.438 216.78 204.376 216.825 203.769 216.474Z" fill="#0B0813"/>
<path d="M218.958 225.243L211.384 220.87C210.776 220.519 210.852 219.906 211.554 219.5L214.035 218.068C214.737 217.663 215.8 217.619 216.407 217.97L223.982 222.343C224.591 222.694 224.513 223.308 223.811 223.713L221.33 225.146C220.628 225.551 219.566 225.594 218.958 225.243Z" fill="#0B0813"/>
<path d="M230.548 231.936L222.974 227.563C222.365 227.212 222.443 226.598 223.145 226.193L225.626 224.76C226.328 224.355 227.39 224.311 227.999 224.663L235.574 229.035C236.181 229.387 236.105 230 235.403 230.406L232.922 231.838C232.22 232.243 231.157 232.287 230.548 231.936Z" fill="#0B0813"/>
<path d="M242.14 238.628L234.566 234.255C233.958 233.904 234.034 233.291 234.737 232.885L237.217 231.453C237.92 231.047 238.982 231.004 239.589 231.355L247.164 235.728C247.773 236.079 247.695 236.693 246.993 237.098L244.512 238.53C243.81 238.936 242.748 238.979 242.14 238.628Z" fill="#0B0813"/>
<path d="M253.73 245.32L246.156 240.947C245.548 240.596 245.625 239.982 246.327 239.577L248.808 238.145C249.51 237.739 250.572 237.696 251.18 238.047L258.754 242.42C259.363 242.771 259.286 243.384 258.583 243.79L256.103 245.222C255.402 245.628 254.339 245.671 253.73 245.32Z" fill="#0B0813"/>
<path d="M318.442 282.682L310.868 278.309C310.26 277.958 310.336 277.345 311.039 276.939L313.519 275.507C314.222 275.102 315.284 275.058 315.892 275.409L323.466 279.782C324.075 280.133 323.997 280.747 323.295 281.152L320.814 282.584C320.114 282.988 319.051 283.033 318.442 282.682Z" fill="#0B0813"/>
<path d="M330.034 289.373L322.46 285C321.851 284.649 321.928 284.035 322.63 283.63L325.111 282.197C325.813 281.792 326.876 281.748 327.485 282.1L335.06 286.472C335.669 286.824 335.591 287.437 334.889 287.843L332.408 289.275C331.704 289.68 330.642 289.725 330.034 289.373Z" fill="#0B0813"/>
<path d="M341.626 296.065L334.051 291.692C333.442 291.341 333.52 290.728 334.222 290.322L336.703 288.89C337.405 288.484 338.468 288.441 339.075 288.792L346.65 293.165C347.257 293.516 347.181 294.13 346.479 294.535L343.998 295.967C343.296 296.373 342.233 296.418 341.626 296.065Z" fill="#0B0813"/>
<path d="M353.216 302.757L345.641 298.384C345.032 298.033 345.11 297.419 345.812 297.014L348.293 295.582C348.995 295.176 350.058 295.133 350.665 295.484L358.24 299.857C358.849 300.208 358.771 300.821 358.069 301.227L355.588 302.659C354.886 303.065 353.825 303.108 353.216 302.757Z" fill="#0B0813"/>
<path d="M238.415 250.299L230.841 245.926C230.233 245.575 230.309 244.961 231.011 244.556L238.516 240.223C239.218 239.818 240.281 239.774 240.888 240.125L248.463 244.498C249.07 244.849 248.994 245.463 248.292 245.869L240.787 250.201C240.087 250.605 239.024 250.65 238.415 250.299Z" fill="#0B0813"/>
<path d="M250.114 257.052L242.539 252.679C241.93 252.328 242.008 251.714 242.71 251.309L250.215 246.976C250.917 246.571 251.98 246.527 252.587 246.878L260.162 251.251C260.771 251.602 260.693 252.216 259.991 252.621L252.486 256.954C251.784 257.359 250.721 257.403 250.114 257.052Z" fill="#0B0813"/>
<path d="M261.812 263.806L254.237 259.433C253.628 259.082 253.706 258.469 254.408 258.063L261.913 253.731C262.615 253.325 263.677 253.282 264.285 253.633L271.859 258.006C272.468 258.357 272.39 258.97 271.688 259.376L264.182 263.71C263.481 264.114 262.42 264.157 261.812 263.806Z" fill="#0B0813"/>
<path d="M273.509 270.561L265.934 266.188C265.325 265.837 265.403 265.223 266.105 264.818L273.612 260.485C274.314 260.08 275.376 260.036 275.984 260.387L283.558 264.76C284.167 265.111 284.09 265.725 283.387 266.13L275.883 270.463C275.181 270.867 274.118 270.912 273.509 270.561Z" fill="#0B0813"/>
<path d="M285.208 277.314L277.633 272.941C277.026 272.59 277.102 271.976 277.804 271.57L285.31 267.238C286.012 266.832 287.075 266.789 287.682 267.14L295.257 271.513C295.864 271.864 295.788 272.478 295.086 272.883L287.581 277.217C286.878 277.621 285.815 277.665 285.208 277.314Z" fill="#0B0813"/>
<path d="M296.905 284.068L289.331 279.695C288.722 279.344 288.799 278.73 289.501 278.325L297.008 273.992C297.71 273.587 298.772 273.543 299.38 273.894L306.954 278.267C307.562 278.618 307.486 279.232 306.784 279.638L299.277 283.972C298.575 284.374 297.513 284.419 296.905 284.068Z" fill="#0B0813"/>
<path d="M308.603 290.82L301.028 286.447C300.419 286.096 300.497 285.483 301.199 285.077L308.705 280.745C309.407 280.339 310.47 280.296 311.077 280.647L318.652 285.02C319.261 285.371 319.183 285.985 318.481 286.39L310.975 290.723C310.273 291.128 309.212 291.171 308.603 290.82Z" fill="#0B0813"/>
<path d="M320.3 297.575L312.726 293.202C312.117 292.851 312.194 292.237 312.896 291.832L320.401 287.499C321.103 287.094 322.166 287.05 322.773 287.401L330.348 291.774C330.957 292.125 330.879 292.739 330.177 293.144L322.672 297.479C321.972 297.882 320.909 297.926 320.3 297.575Z" fill="#0B0813"/>
<path d="M331.999 304.328L324.425 299.955C323.817 299.604 323.893 298.99 324.596 298.585L332.102 294.252C332.804 293.847 333.866 293.803 334.474 294.154L342.048 298.527C342.657 298.878 342.58 299.492 341.878 299.897L334.373 304.23C333.669 304.635 332.607 304.68 331.999 304.328Z" fill="#0B0813"/>
<path d="M171.538 251.132L149.229 238.252C148.621 237.901 148.697 237.287 149.399 236.882L156.904 232.549C157.606 232.144 158.669 232.101 159.278 232.452L181.587 245.331C182.194 245.682 182.118 246.296 181.416 246.701L173.91 251.034C173.208 251.439 172.145 251.484 171.538 251.132Z" fill="#0B0813"/>
<path d="M315.248 334.104L292.939 321.225C292.332 320.874 292.408 320.26 293.11 319.855L300.616 315.522C301.319 315.117 302.381 315.073 302.989 315.424L325.298 328.304C325.907 328.655 325.829 329.269 325.127 329.674L317.62 334.007C316.918 334.41 315.856 334.456 315.248 334.104Z" fill="#0B0813"/>
<path d="M268.466 322.012L260.892 317.639C260.283 317.288 260.361 316.675 261.063 316.269L270.004 311.107C270.707 310.702 271.769 310.658 272.376 311.009L279.951 315.382C280.558 315.733 280.482 316.347 279.78 316.752L270.839 321.914C270.138 322.32 269.075 322.365 268.466 322.012Z" fill="#0B0813"/>
<path d="M183.516 272.967L171.402 265.973C170.795 265.622 170.871 265.009 171.573 264.603L180.515 259.441C181.217 259.036 182.28 258.992 182.887 259.343L195.001 266.337C195.61 266.688 195.532 267.301 194.83 267.707L185.888 272.869C185.188 273.274 184.125 273.318 183.516 272.967Z" fill="#0B0813"/>
<path d="M257.196 315.506L245.082 308.513C244.473 308.162 244.551 307.548 245.253 307.143L254.195 301.981C254.897 301.575 255.96 301.532 256.567 301.883L268.681 308.876C269.288 309.227 269.212 309.841 268.51 310.247L259.57 315.409C258.866 315.812 257.804 315.858 257.196 315.506Z" fill="#0B0813"/>
<path d="M200.394 282.712L188.28 275.718C187.673 275.367 187.749 274.753 188.451 274.348L197.393 269.186C198.095 268.78 199.158 268.737 199.765 269.088L211.879 276.081C212.488 276.433 212.41 277.046 211.708 277.452L202.766 282.614C202.064 283.018 201.002 283.063 200.394 282.712Z" fill="#0B0813"/>
<path d="M199.846 269.135L252.516 299.543C253.17 299.921 253.17 300.533 252.516 300.91L243.399 306.174C242.745 306.551 241.685 306.551 241.031 306.174L188.362 275.765L199.846 269.135Z" fill="#0B0813"/>
<path d="M301.16 334.258L309.598 339.13C310.097 339.417 310.035 339.92 309.459 340.253L305.8 342.364C305.225 342.696 304.354 342.732 303.855 342.445L295.419 337.573C294.92 337.286 294.982 336.782 295.558 336.45L299.215 334.339C299.792 334.006 300.661 333.971 301.16 334.258Z" fill="#0B0813"/>
<path d="M289.365 327.448L297.803 332.32C298.302 332.607 298.24 333.11 297.664 333.443L294.007 335.554C293.43 335.886 292.56 335.922 292.062 335.635L283.625 330.763C283.126 330.476 283.189 329.972 283.765 329.64L287.422 327.529C287.996 327.198 288.866 327.161 289.365 327.448Z" fill="#0B0813"/>
<path d="M277.668 320.695L286.106 325.567C286.605 325.854 286.542 326.357 285.966 326.69L282.309 328.801C281.733 329.133 280.863 329.169 280.364 328.882L271.926 324.01C271.427 323.723 271.49 323.219 272.066 322.887L275.723 320.776C276.299 320.443 277.169 320.408 277.668 320.695Z" fill="#0B0813"/>
<path d="M295.826 323.72L304.263 328.591C304.761 328.879 304.699 329.382 304.123 329.714L300.464 331.825C299.89 332.158 299.018 332.194 298.519 331.906L290.081 327.035C289.582 326.747 289.645 326.244 290.221 325.912L293.879 323.8C294.456 323.468 295.327 323.431 295.826 323.72Z" fill="#0B0813"/>
</g>
<path d="M419.628 310.055L196.146 181.028C192.632 178.999 190.797 174.054 192.049 169.986L242.589 5.89383C243.841 1.82536 247.705 0.170942 251.219 2.19974L474.7 131.227C478.214 133.256 480.049 138.199 478.797 142.269L428.257 306.361C427.006 310.431 423.143 312.084 419.628 310.055Z" fill="url(#paint4_linear_125_1094)"/>
<path d="M417.521 304.309L200.757 179.056C197.393 177.115 195.638 172.384 196.836 168.49L245.154 11.6182C246.352 7.72374 250.049 6.14079 253.412 8.08259L470.177 133.335C473.54 135.277 475.295 140.007 474.098 143.902L425.779 300.773C424.582 304.668 420.884 306.251 417.521 304.309Z" fill="#1A153B"/>
<path opacity="0.4" d="M417.521 304.309L200.757 179.056C197.393 177.115 195.638 172.384 196.836 168.49L245.154 11.6182C246.352 7.72374 250.049 6.14079 253.412 8.08259L470.177 133.335C473.54 135.277 475.295 140.007 474.098 143.902L425.779 300.773C424.582 304.668 420.884 306.251 417.521 304.309Z" fill="#0B0813"/>
<path opacity="0.4" d="M417.521 304.309L200.757 179.056C197.393 177.115 195.638 172.384 196.836 168.49L245.154 11.6182C246.352 7.72374 250.049 6.14079 253.412 8.08259L470.177 133.335C473.54 135.277 475.295 140.007 474.098 143.902L425.779 300.773C424.582 304.668 420.884 306.251 417.521 304.309Z" fill="#0B0813"/>
<path opacity="0.5" d="M405.875 256.37L259.136 171.651C256.829 170.319 255.624 167.073 256.446 164.402L289.63 56.6577C290.452 53.9858 292.989 52.8999 295.297 54.2313L442.036 138.95C444.343 140.283 445.548 143.528 444.726 146.2L411.542 253.944C410.72 256.616 408.183 257.701 405.875 256.37Z" fill="#0B0813"/>
<path d="M386.048 258.97L239.31 174.252C237.003 172.919 235.797 169.674 236.619 167.002L269.804 59.2578C270.626 56.5859 273.162 55.5 275.469 56.8313L422.208 141.552C424.515 142.884 425.718 146.13 424.897 148.802L391.712 256.545C390.893 259.217 388.357 260.303 386.048 258.97Z" fill="url(#paint5_linear_125_1094)"/>
<g opacity="0.5">
<path d="M386.048 258.97L239.31 174.252C237.003 172.919 235.797 169.674 236.619 167.002L269.804 59.2578C270.626 56.5859 273.162 55.5 275.469 56.8313L422.208 141.552C424.515 142.884 425.718 146.13 424.897 148.802L391.712 256.545C390.893 259.217 388.357 260.303 386.048 258.97Z" fill="#0B0813"/>
</g>
<path d="M422.209 141.552L275.471 56.8313C274.024 55.9971 272.49 56.1121 271.342 56.9712C272.033 56.951 272.755 57.1079 273.461 57.5133L420.199 142.232C422.506 143.563 423.71 146.81 422.888 149.482L389.703 257.226C389.396 258.223 388.849 258.998 388.165 259.511C389.739 259.464 391.142 258.399 391.713 256.542L424.898 148.798C425.721 146.13 424.516 142.883 422.209 141.552Z" fill="white"/>
<path opacity="0.4" d="M200.977 346.954C198.955 346.954 197.019 346.533 195.54 345.68V345.682L136.748 311.739C135.19 310.838 134.333 309.554 134.333 308.117C134.331 306.451 135.515 304.812 137.575 303.622L167.836 286.149C171.535 284.016 176.961 283.807 180.197 285.672L238.987 319.615C240.545 320.515 241.402 321.801 241.404 323.238C241.404 324.903 240.222 326.542 238.162 327.73L207.898 345.204C205.894 346.362 203.376 346.954 200.977 346.954ZM174.789 286.118C172.664 286.118 170.407 286.629 168.687 287.622L138.426 305.094C136.904 305.971 136.031 307.074 136.031 308.117C136.031 309.147 136.884 309.855 137.6 310.268L196.391 344.211C199.059 345.747 203.938 345.533 207.051 343.732L237.314 326.261C238.835 325.383 239.708 324.28 239.708 323.238C239.708 322.208 238.855 321.5 238.139 321.086L179.348 287.144C178.155 286.454 176.515 286.118 174.789 286.118Z" fill="#0B0813"/>
<path d="M311.212 113.358L302.14 108.12C301.298 107.634 300.848 106.465 301.132 105.512C301.416 104.556 302.33 104.177 303.172 104.663L312.244 109.902C313.086 110.388 313.536 111.556 313.252 112.51C312.966 113.464 312.053 113.843 311.212 113.358Z" fill="white"/>
<path d="M332.821 125.834L319.444 118.11C318.602 117.624 318.152 116.456 318.436 115.502C318.72 114.547 319.634 114.167 320.476 114.654L333.852 122.376C334.694 122.862 335.145 124.03 334.86 124.984C334.576 125.939 333.663 126.32 332.821 125.834Z" fill="white"/>
<path d="M292.916 153.746L283.844 148.508C283.002 148.022 282.551 146.854 282.836 145.9C283.12 144.945 284.033 144.565 284.875 145.05L293.947 150.288C294.789 150.775 295.24 151.943 294.956 152.897C294.671 153.852 293.758 154.233 292.916 153.746Z" fill="white"/>
<path d="M312.178 164.869L298.802 157.147C297.96 156.661 297.509 155.492 297.794 154.539C298.078 153.583 298.991 153.204 299.833 153.69L313.21 161.414C314.052 161.9 314.502 163.068 314.218 164.022C313.934 164.975 313.02 165.354 312.178 164.869Z" fill="white"/>
<path d="M284.036 106.16L278.369 102.888C277.527 102.402 277.077 101.234 277.361 100.28C277.646 99.3244 278.559 98.9453 279.401 99.4316L285.068 102.703C285.91 103.189 286.36 104.358 286.076 105.311C285.792 106.265 284.878 106.646 284.036 106.16Z" fill="white"/>
<path d="M301.089 124.496L283.774 114.5C282.932 114.014 282.481 112.845 282.766 111.892C283.05 110.936 283.963 110.557 284.805 111.043L302.12 121.04C302.962 121.526 303.413 122.694 303.128 123.648C302.844 124.603 301.931 124.982 301.089 124.496Z" fill="white"/>
<path d="M285.119 132.261L279.452 128.989C278.61 128.503 278.16 127.335 278.444 126.381C278.728 125.425 279.642 125.046 280.484 125.533L286.151 128.804C286.993 129.29 287.443 130.459 287.159 131.412C286.873 132.366 285.96 132.747 285.119 132.261Z" fill="white"/>
<path d="M314.268 183.058L299.131 174.319C298.289 173.832 297.839 172.664 298.123 171.71C298.407 170.755 299.321 170.376 300.163 170.862L315.3 179.602C316.142 180.088 316.592 181.256 316.308 182.21C316.022 183.164 315.11 183.545 314.268 183.058Z" fill="white"/>
<path d="M278.767 145.578L275.129 143.478C274.287 142.992 273.837 141.823 274.121 140.87C274.405 139.914 275.319 139.535 276.161 140.021L279.799 142.122C280.641 142.608 281.091 143.776 280.807 144.73C280.521 145.684 279.609 146.063 278.767 145.578Z" fill="white"/>
<path d="M275.325 160.574L270.807 157.966C269.965 157.479 269.515 156.311 269.799 155.357C270.083 154.402 270.997 154.023 271.839 154.509L276.356 157.117C277.198 157.604 277.648 158.772 277.364 159.726C277.08 160.679 276.166 161.06 275.325 160.574Z" fill="white"/>
<path d="M292.899 170.721L280.989 163.845C280.147 163.359 279.696 162.191 279.98 161.237C280.265 160.281 281.178 159.902 282.02 160.389L293.93 167.264C294.772 167.75 295.223 168.919 294.939 169.872C294.654 170.826 293.741 171.207 292.899 170.721Z" fill="white"/>
<path d="M277.209 170.154L268.646 165.209C267.804 164.723 267.354 163.555 267.638 162.601C267.923 161.646 268.836 161.267 269.678 161.753L278.242 166.697C279.084 167.184 279.535 168.352 279.25 169.306C278.964 170.26 278.051 170.64 277.209 170.154Z" fill="white"/>
<path d="M327.253 190.593L321.754 187.417C320.912 186.931 320.462 185.763 320.746 184.809C321.03 183.854 321.944 183.475 322.786 183.961L328.285 187.136C329.127 187.622 329.577 188.791 329.293 189.744C329.009 190.698 328.095 191.077 327.253 190.593Z" fill="white"/>
<path d="M306.199 144.432L291.063 135.692C290.221 135.206 289.77 134.038 290.054 133.084C290.339 132.129 291.252 131.75 292.094 132.236L307.231 140.975C308.073 141.462 308.523 142.63 308.239 143.584C307.955 144.537 307.041 144.918 306.199 144.432Z" fill="white"/>
<path d="M307.993 136.975L281.613 121.744C280.771 121.258 280.32 120.09 280.605 119.136C280.889 118.18 281.802 117.801 282.644 118.288L309.025 133.519C309.867 134.005 310.317 135.173 310.033 136.127C309.749 137.081 308.835 137.462 307.993 136.975Z" fill="#FFA600"/>
<path d="M292.427 144.972L277.29 136.233C276.448 135.746 275.997 134.578 276.282 133.624C276.566 132.669 277.479 132.29 278.321 132.776L293.458 141.516C294.3 142.002 294.75 143.17 294.466 144.124C294.182 145.078 293.268 145.459 292.427 144.972Z" fill="#FFA600"/>
<path d="M317.679 151.06L312.18 147.885C311.338 147.399 310.888 146.231 311.172 145.277C311.456 144.321 312.37 143.942 313.212 144.429L318.711 147.604C319.553 148.09 320.003 149.258 319.719 150.212C319.435 151.166 318.521 151.547 317.679 151.06Z" fill="#FFA600"/>
<path d="M373.621 149.391L341.053 130.588C340.211 130.101 339.76 128.933 340.045 127.979C340.329 127.024 341.242 126.645 342.084 127.131L374.652 145.934C375.494 146.42 375.945 147.589 375.66 148.542C375.376 149.496 374.463 149.875 373.621 149.391Z" fill="#FFA600"/>
<path d="M291.164 161.226L272.968 150.722C272.126 150.236 271.676 149.068 271.96 148.114C272.244 147.158 273.158 146.779 274 147.264L292.195 157.768C293.037 158.255 293.488 159.423 293.203 160.377C292.919 161.332 292.006 161.713 291.164 161.226Z" fill="#FF6361"/>
<path d="M293.907 103.367L280.531 95.6429C279.689 95.1566 279.238 93.9884 279.522 93.0346C279.807 92.0792 280.72 91.7002 281.562 92.1864L294.939 99.9102C295.781 100.396 296.231 101.565 295.947 102.518C295.663 103.472 294.749 103.853 293.907 103.367Z" fill="#FF6361"/>
<path d="M274.411 177.031L258.919 168.086C258.077 167.6 257.626 166.432 257.911 165.478C258.195 164.523 259.108 164.144 259.95 164.628L275.443 173.573C276.285 174.059 276.735 175.227 276.451 176.181C276.167 177.137 275.253 177.517 274.411 177.031Z" fill="#FFA600"/>
<defs>
<linearGradient id="paint0_linear_125_1094" x1="227.082" y1="196.55" x2="227.082" y2="461.484" gradientUnits="userSpaceOnUse">
<stop stop-color="#FFD380"/>
<stop offset="1" stop-color="#FF6361"/>
</linearGradient>
<linearGradient id="paint1_linear_125_1094" x1="339.233" y1="0" x2="339.233" y2="310.599" gradientUnits="userSpaceOnUse">
<stop stop-color="#FF6361"/>
<stop offset="1" stop-color="#C26EE2"/>
</linearGradient>
<linearGradient id="paint2_linear_125_1094" x1="227.89" y1="186.234" x2="227.89" y2="407.78" gradientUnits="userSpaceOnUse">
<stop stop-color="#C26EE2"/>
<stop offset="1" stop-color="#270634"/>
</linearGradient>
<linearGradient id="paint3_linear_125_1094" x1="227.884" y1="178.799" x2="227.884" y2="401.918" gradientUnits="userSpaceOnUse">
<stop stop-color="#C26EE2"/>
<stop offset="1" stop-color="#270634"/>
</linearGradient>
<linearGradient id="paint4_linear_125_1094" x1="335.423" y1="1.33301" x2="335.423" y2="310.922" gradientUnits="userSpaceOnUse">
<stop stop-color="#C26EE2"/>
<stop offset="1" stop-color="#270634"/>
</linearGradient>
<linearGradient id="paint5_linear_125_1094" x1="330.758" y1="56.2627" x2="330.758" y2="259.54" gradientUnits="userSpaceOnUse">
<stop stop-color="#FF6361"/>
<stop offset="1" stop-color="#C26EE2"/>
</linearGradient>
</defs>
</svg>
