<svg width="100" height="100" viewBox="0 0 100 100" fill="none" xmlns="http://www.w3.org/2000/svg">
<rect width="100" height="100" rx="50" fill="#C26EE2"/>
<path fill-rule="evenodd" clip-rule="evenodd" d="M54.6804 41.1873C53.6847 40.6551 52.6089 40.2984 51.5 40.1289V30C54.2687 30.2082 56.9696 30.9912 59.428 32.3053C62.3286 33.8557 64.8022 36.0976 66.6294 38.8323C68.4567 41.567 69.5814 44.7102 69.9037 47.9833C69.9188 48.1367 69.9322 48.2902 69.9437 48.4437H59.8148C59.5956 47.0091 59.0641 45.6378 58.2555 44.4276C57.3484 43.07 56.1204 41.957 54.6804 41.1873ZM38.8886 33.3143C41.7604 31.3954 45.0727 30.2577 48.5 30V40.1289C47.0693 40.3476 45.6974 40.8774 44.4839 41.6882C42.8511 42.7792 41.5785 44.3299 40.8271 46.1441C40.0756 47.9584 39.8789 49.9547 40.262 51.8807C40.5468 53.3121 41.1422 54.6569 41.9993 55.8232L34.8371 62.9854C32.5958 60.3796 31.0581 57.233 30.3843 53.8455C29.6126 49.9659 30.0087 45.9445 31.5224 42.29C33.0362 38.6355 35.5996 35.5119 38.8886 33.3143ZM36.9584 65.1067C39.0635 66.9172 41.5269 68.2733 44.1944 69.0825C47.3418 70.0372 50.676 70.201 53.9019 69.5594C57.0977 68.9237 60.0893 67.5169 62.6168 65.462L53.6027 59.1957C53.0646 59.4053 52.5074 59.5682 51.9371 59.6816C50.3356 60.0002 48.6804 59.9189 47.1179 59.4449C46.0375 59.1172 45.0246 58.6087 44.1206 57.9445L36.9584 65.1067ZM59.173 53.7432C59.4798 53.0025 59.6946 52.2303 59.8148 51.4437H69.9437C69.7851 53.5524 69.2925 55.6301 68.4776 57.5973C67.5998 59.7165 66.367 61.6619 64.8389 63.353L56.431 57.5082C57.63 56.4889 58.5702 55.1986 59.173 53.7432Z" fill="white"/>
</svg>
