<?xml version="1.0" encoding="UTF-8"?><svg id="Camada_2" xmlns="http://www.w3.org/2000/svg" xmlns:xlink="http://www.w3.org/1999/xlink" viewBox="0 0 386.46 103.74"><defs><style>.cls-1{fill:url(#linear-gradient);stroke-width:0px;}</style><linearGradient id="linear-gradient" x1="193.23" y1="-14.9" x2="193.23" y2="131.79" gradientUnits="userSpaceOnUse"><stop offset="0" stop-color="#f6d6a2"/><stop offset="1" stop-color="#ff6266"/></linearGradient></defs><g id="Camada_1-2"><path class="cls-1" d="M89.35,0h7.31v95.09c0,4.77-3.87,8.65-8.65,8.65h-7.31V8.65c0-4.77,3.87-8.65,8.65-8.65ZM374.95,23.25c-2.33.54-4.47,1.36-6.47,2.46-.96.53-1.87,1.11-2.73,1.77v-4h-8.08c-4.65,0-8.42,3.77-8.42,8.42v71.84h8.13c4.65,0,8.42-3.77,8.42-8.42v-6.82c0-10.23,0-20.8.02-31.2,0-1.94.16-3.84.45-5.64,1.07-6.58,5.09-10.78,11.61-12.14,1.01-.21,2.11-.32,3.29-.44.61-.06,1.21-.12,1.82-.2l3.47-.43v-7.27c0-4.87-4.18-8.69-9.03-8.25-1.06.1-1.95.21-2.49.33ZM164.48,70.19v17.46s-2.48.12-2.48.12h-12.58c-3.36,0-6.72,0-10.08,0-1.77,0-3.29-.32-4.62-.98-3.86-1.89-6.35-5.91-6.34-10.23.05-4.28,2.54-8.25,6.34-10.11,1.34-.66,2.85-.98,4.62-.98,3.36,0,6.72,0,10.08,0h8.19s15.33,0,15.33,0c4.18,0,7.56-3.39,7.56-7.56v-14.34c0-.44-.03-.89-.11-1.33-1.98-10.92-11.5-18.87-22.59-18.87h-16.92c-4.34,0-7.85,3.52-7.85,7.85v8.16h24.77c2.87,0,5.48,1.81,6.5,4.49.11.3.17.61.17.92v4.73s-2.93,0-2.93,0c-3.1,0-6.2,0-9.29,0-5.27,0-9.57.01-13.55.04-6.81.04-12.83,2.45-17.91,7.16-5.9,5.46-8.79,11.84-8.83,19.5v.31c-.02,7.85,2.95,14.59,8.83,20.04,5.08,4.71,11.11,7.11,17.91,7.15,3.97.03,8.29.04,13.6.04,2.85,0,5.7,0,8.55,0h4.53s15.13,0,15.13,0v-33.53h-16.02ZM333.82,52.98c-.4-1.46-.84-2.91-1.33-4.29-.26-.79-.56-1.56-.91-2.32-.6-1.39-1.27-2.68-2-3.8,0,0,0,0,0,0-7-11.69-19.73-19.2-34.43-19.2-22.52,0-40.18,17.63-40.21,40.14-.01,10.85,4.13,20.98,11.67,28.53,7.54,7.55,17.68,11.71,28.54,11.71h.02c7.19,0,14.04-1.82,20.03-5.23.89-.51,2.2-1.5,3.63-2.68,4.41-3.62,4.15-10.45-.52-13.72l-4.14-2.9-2.26,2.14c-4.48,4.25-10.42,6.6-16.73,6.62h-.07c-6.52,0-12.6-2.51-17.11-7.07-1.28-1.29-2.38-2.71-3.32-4.23h-.01s-.04-.08-.06-.12c-1.25-2.04-2.2-4.25-2.81-6.59h.12c-3.55-12.76,3.79-21.06,3.79-21.06h0c4.36-5.94,11.37-9.74,19.41-9.75h.06c10.41,0,19.38,6.48,22.79,15.94h-32.89c-4.29,0-7.77,3.46-7.81,7.74-.02,2.18.26,4.57.97,7.14h42.45c8.87,0,15.45-8.4,13.13-16.97ZM239.99,84.83l-3.72,1.09c-.42.12-.84.25-1.25.38-.84.26-1.64.5-2.42.7-2.46.62-4.71.92-6.86.92-1.39,0-2.76-.13-4.07-.39-4.7-.93-7.41-3.64-8.3-8.3-.29-1.55-.45-3.28-.45-5.13-.02-10.12-.02-22.45-.03-34.9h15.89c5.39,0,9.77-4.37,9.77-9.77v-6.32h-25.66c0-1.39,0-2.77,0-4.13V.97s-6.32,0-6.32,0c-5.39,0-9.77,4.37-9.77,9.77v10.96c0,17.52,0,37.65,0,52.6,0,5.07.79,9.4,2.41,13.26,3.18,7.55,8.93,12.58,17.1,14.93,2.93.84,5.99,1.25,9.37,1.25h0c1.38,0,2.78-.07,4.28-.21,1.18-.11,3.04-.54,5.02-1.08,5.07-1.38,8.06-6.63,6.65-11.69l-1.64-5.94ZM61.97,89.76c-5.03,9.05-13.39,13.87-24.17,13.94-3.89.03-8.06.04-13.12.04-3.32,0-6.64,0-9.96-.01-1.45,0-4.46,0-7.38,0-4.05,0-7.34-3.29-7.34-7.34V11.63h13.42c3,0,6,0,8.99,0,5.17,0,9.4.01,13.29.04,6.65.04,12.54,2.39,17.51,6.99,6.54,6.05,9.39,13.69,8.47,22.69-.27,2.64-.94,5.05-1.98,7.25-3.88-2.51-8.81-4.96-14.67-6.4.08-.21.16-.42.23-.63,1.69-5.22-.75-10.97-5.67-13.37-1.31-.64-2.79-.95-4.52-.96-3.27,0-6.55,0-9.82,0h-9.18v21.8c1.13,0,2.26,0,3.39,0,2.24,0,4.49.01,6.73.01,2.02,0,3.83,0,5.51-.02h0c.33,0,.65,0,.98,0,3.12.04,13.2.65,21.64,6.55-.02.01-.03.03-.05.04.54.34,1.04.71,1.54,1.08,2.12,1.69,4.1,3.74,5.78,6.25.22.35.43.7.63,1.06,4.58,8.33,4.5,17.24-.24,25.77ZM44.6,66.76c-1.82-1.42-3.91-2.11-6.38-2.11-4.71,0-9.41,0-14.12,0h-8.04v16.76c0,3.7,3,6.69,6.69,6.69,5.9,0,13.82-.01,15.88-.04,5.23-.06,9.88-4.27,10.58-9.57.66-5.04-.8-8.76-4.61-11.73Z"/></g></svg>