<svg width="613" height="410" viewBox="0 0 613 410" fill="none" xmlns="http://www.w3.org/2000/svg">
<path opacity="0.4" d="M249.034 181.984C249.034 183.541 247.773 184.802 246.216 184.802C244.659 184.802 243.399 183.541 243.399 181.984C243.399 180.427 244.659 179.166 246.216 179.166C247.772 179.166 249.034 180.429 249.034 181.984Z" fill="#FF6361"/>
<path opacity="0.6" d="M81.0275 76.0355C81.0275 78.3442 79.1562 80.2136 76.8493 80.2136C74.5424 80.2136 72.6711 78.3424 72.6711 76.0355C72.6711 73.7286 74.5424 71.8573 76.8493 71.8573C79.1562 71.8573 81.0275 73.7268 81.0275 76.0355Z" fill="#FF6361"/>
<path opacity="0.8" d="M78.5795 76.0354C78.5795 76.9906 77.8046 77.7655 76.8493 77.7655C75.8941 77.7655 75.1191 76.9906 75.1191 76.0354C75.1191 75.0801 75.8941 74.3052 76.8493 74.3052C77.8046 74.3052 78.5795 75.0801 78.5795 76.0354Z" fill="#FF6361"/>
<path opacity="0.4" d="M290.171 140.365C290.171 146.532 285.172 151.53 279.006 151.53C272.839 151.53 267.841 146.53 267.841 140.365C267.841 134.198 272.841 129.2 279.006 129.2C285.172 129.198 290.171 134.198 290.171 140.365Z" fill="#FF6361"/>
<path opacity="0.8" d="M279.006 145.005C281.569 145.005 283.647 142.928 283.647 140.365C283.647 137.802 281.569 135.724 279.006 135.724C276.443 135.724 274.366 137.802 274.366 140.365C274.366 142.928 276.443 145.005 279.006 145.005Z" fill="#FF6361"/>
<path d="M303.638 221.289L278.353 139.81L485.547 168.825L485.418 169.735L279.66 140.92L304.515 221.016L303.638 221.289Z" fill="#FF6361"/>
<path d="M529.357 247.917H528.398V266.76H529.357V247.917Z" fill="#FF6361"/>
<path d="M529.357 271.179H528.398V277.217H529.357V271.179Z" fill="url(#paint0_linear_27_877)"/>
<path d="M67.8109 233.798H66.8521V252.639H67.8109V233.798Z" fill="url(#paint1_linear_27_877)"/>
<path d="M67.8109 256.967H66.8521V262.351H67.8109V256.967Z" fill="#FF6361"/>
<path d="M67.8109 266.861H66.8521V272.243H67.8109V266.861Z" fill="#FF6361"/>
<path d="M197.045 0H196.086V18.841H197.045V0Z" fill="#FF6361"/>
<path d="M197.045 23.1691H196.086V28.5507H197.045V23.1691Z" fill="url(#paint2_linear_27_877)"/>
<path d="M197.045 33.061H196.086V38.4444H197.045V33.061Z" fill="url(#paint3_linear_27_877)"/>
<path d="M197.045 42.953H196.086V58.2265H197.045V42.953Z" fill="url(#paint4_linear_27_877)"/>
<path d="M412.336 398.052H411.377V404.093H412.336V398.052Z" fill="#FF6361"/>
<path d="M412.336 350.094H411.377V369.203H412.336V350.094Z" fill="#FF6361"/>
<path d="M542.889 161.771H541.931V167.812H542.889V161.771Z" fill="#FF6361"/>
<path d="M542.889 138.511H541.931V157.352H542.889V138.511Z" fill="url(#paint5_linear_27_877)"/>
<path d="M542.889 113.812H541.931V132.921H542.889V113.812Z" fill="#FF6361"/>
<path d="M542.889 85.438H541.931V104.547H542.889V85.438Z" fill="#FF6361"/>
<path opacity="0.4" d="M98.3294 68.5666C104.129 68.5666 108.83 63.8652 108.83 58.0658C108.83 52.2664 104.129 47.5651 98.3294 47.5651C92.53 47.5651 87.8286 52.2664 87.8286 58.0658C87.8286 63.8652 92.53 68.5666 98.3294 68.5666Z" fill="url(#paint6_linear_27_877)"/>
<path opacity="0.8" d="M98.3294 63.2259C101.179 63.2259 103.49 60.9156 103.49 58.0657C103.49 55.2158 101.179 52.9055 98.3294 52.9055C95.4795 52.9055 93.1692 55.2158 93.1692 58.0657C93.1692 60.9156 95.4795 63.2259 98.3294 63.2259Z" fill="url(#paint7_linear_27_877)"/>
<path opacity="0.4" d="M175.775 365.968C175.775 369.88 172.602 373.053 168.69 373.053C164.778 373.053 161.605 369.88 161.605 365.968C161.605 362.056 164.776 358.883 168.69 358.883C172.604 358.883 175.775 362.054 175.775 365.968Z" fill="url(#paint8_linear_27_877)"/>
<path opacity="0.8" d="M168.69 369.45C170.613 369.45 172.172 367.891 172.172 365.968C172.172 364.045 170.613 362.486 168.69 362.486C166.767 362.486 165.208 364.045 165.208 365.968C165.208 367.891 166.767 369.45 168.69 369.45Z" fill="url(#paint9_linear_27_877)"/>
<path opacity="0.4" d="M427.749 288.622C431.826 288.622 435.13 285.317 435.13 281.24C435.13 277.164 431.826 273.859 427.749 273.859C423.672 273.859 420.367 277.164 420.367 281.24C420.367 285.317 423.672 288.622 427.749 288.622Z" fill="url(#paint10_linear_27_877)"/>
<path opacity="0.8" d="M427.749 284.867C429.752 284.867 431.375 283.243 431.375 281.24C431.375 279.237 429.752 277.614 427.749 277.614C425.746 277.614 424.122 279.237 424.122 281.24C424.122 283.243 425.746 284.867 427.749 284.867Z" fill="url(#paint11_linear_27_877)"/>
<path opacity="0.4" d="M240.614 123.82C240.614 126.973 238.058 129.528 234.905 129.528C231.752 129.528 229.197 126.973 229.197 123.82C229.197 120.667 231.752 118.112 234.905 118.112C238.058 118.112 240.614 120.667 240.614 123.82Z" fill="url(#paint12_linear_27_877)"/>
<path opacity="0.8" d="M234.905 126.625C236.454 126.625 237.71 125.369 237.71 123.82C237.71 122.271 236.454 121.015 234.905 121.015C233.356 121.015 232.1 122.271 232.1 123.82C232.1 125.369 233.356 126.625 234.905 126.625Z" fill="url(#paint13_linear_27_877)"/>
<path opacity="0.4" d="M449.734 357.44C451.444 357.44 452.83 356.054 452.83 354.344C452.83 352.634 451.444 351.248 449.734 351.248C448.024 351.248 446.638 352.634 446.638 354.344C446.638 356.054 448.024 357.44 449.734 357.44Z" fill="url(#paint14_linear_27_877)"/>
<path opacity="0.4" d="M427.91 183.911C427.91 184.866 427.135 185.641 426.179 185.641C425.224 185.641 424.449 184.866 424.449 183.911C424.449 182.955 425.224 182.18 426.179 182.18C427.135 182.18 427.91 182.955 427.91 183.911Z" fill="url(#paint15_linear_27_877)"/>
<path opacity="0.4" d="M192.095 323.1C192.095 324.056 191.32 324.831 190.365 324.831C189.41 324.831 188.635 324.056 188.635 323.1C188.635 322.145 189.41 321.37 190.365 321.37C191.32 321.37 192.095 322.145 192.095 323.1Z" fill="url(#paint16_linear_27_877)"/>
<path d="M295.062 269.32C291.554 269.32 288.047 268.549 285.376 267.008L220.241 229.401C217.539 227.84 216.05 225.73 216.05 223.46C216.05 221.187 217.539 219.075 220.241 217.515L285.031 179.841C290.373 176.754 299.065 176.756 304.408 179.84L369.544 217.445C372.247 219.005 373.735 221.116 373.735 223.387C373.735 225.66 372.247 227.769 369.544 229.329L304.752 267.004C302.081 268.551 298.571 269.32 295.062 269.32ZM294.719 178.722C291.43 178.722 288.141 179.445 285.638 180.891L220.848 218.564C218.536 219.902 217.261 221.641 217.263 223.46C217.263 225.282 218.536 227.019 220.846 228.353L285.981 265.96C290.989 268.851 299.137 268.851 304.145 265.96L368.935 228.285C371.249 226.949 372.522 225.21 372.522 223.391C372.522 221.569 371.249 219.832 368.937 218.498L303.802 180.891C301.297 179.445 298.008 178.722 294.719 178.722Z" fill="url(#paint17_linear_27_877)"/>
<path d="M373.446 202.835L373.435 171.606L333.971 176.872L304.422 159.811C299.239 156.819 290.836 156.819 285.652 159.811L281.051 162.736L216.979 171.285V202.88C216.979 202.898 216.979 202.916 216.979 202.932V203.08L217.004 203.076C217.077 204.98 218.346 206.871 220.862 208.324L285.997 245.929C291.18 248.922 299.583 248.922 304.767 245.929L369.558 208.253C372.067 206.805 373.333 204.921 373.415 203.023L373.446 203.019V202.835Z" fill="url(#paint18_linear_27_877)"/>
<path d="M369.558 165.953L304.424 128.348C299.24 125.356 290.837 125.356 285.654 128.348L220.862 166.023C215.679 169.016 215.679 173.867 220.862 176.859L285.997 214.465C291.18 217.457 299.583 217.457 304.766 214.465L369.558 176.79C374.742 173.797 374.742 168.946 369.558 165.953Z" fill="url(#paint19_linear_27_877)"/>
<path d="M369.558 174.897L304.766 212.572C299.583 215.565 291.18 215.565 285.997 212.572L220.862 174.967C218.689 173.712 217.439 172.13 217.089 170.494C216.604 172.758 217.853 175.12 220.862 176.858L285.997 214.465C291.18 217.457 299.583 217.457 304.766 214.465L369.558 176.788C372.569 175.051 373.817 172.687 373.331 170.424C372.981 172.06 371.733 173.642 369.558 174.897Z" fill="white"/>
<path d="M313.525 222.801L310.441 224.582V221.021L313.525 219.241V222.801Z" fill="white"/>
<path d="M319.976 219.077L316.892 220.857V217.296L319.976 215.516V219.077Z" fill="white"/>
<path d="M326.427 215.352L323.343 217.132V213.572L326.427 211.792V215.352Z" fill="white"/>
<path d="M321.152 225.612L318.069 227.392V223.832L321.152 222.051V225.612Z" fill="white"/>
<path d="M326.832 222.332L323.749 224.114V220.551L326.832 218.771V222.332Z" fill="white"/>
<path d="M347.119 203.405L344.036 205.185V201.625L347.119 199.845V203.405Z" fill="white"/>
<path d="M364.889 193.145L361.806 194.926V191.365L364.889 189.585V193.145Z" fill="white"/>
<path d="M332.878 211.627L329.794 213.408V209.847L332.878 208.067V211.627Z" fill="white"/>
<path opacity="0.4" d="M291.525 198.579L247.702 173.278C245.921 172.249 246.145 170.453 248.201 169.265L291.023 144.541C293.08 143.354 296.192 143.225 297.973 144.254L341.795 169.555C343.577 170.583 343.352 172.379 341.297 173.567L298.474 198.291C296.417 199.479 293.307 199.607 291.525 198.579Z" fill="#06033E"/>
<path d="M274.284 225.965L238.121 205.087C237.257 204.589 236.559 203.252 236.559 202.1V199.414C236.559 198.263 237.259 197.734 238.121 198.232L274.284 219.111C275.146 219.609 275.846 220.946 275.846 222.098V224.783C275.848 225.933 275.148 226.464 274.284 225.965Z" fill="white"/>
<path d="M373.446 144.247L373.435 113.017L333.971 118.283L304.422 101.222C299.239 98.2296 290.836 98.2296 285.652 101.222L281.051 104.147L216.979 112.696V144.291C216.979 144.309 216.979 144.327 216.979 144.343V144.491L217.004 144.488C217.077 146.391 218.346 148.282 220.862 149.735L285.997 187.341C291.18 190.333 299.583 190.333 304.767 187.341L369.558 149.664C372.067 148.216 373.333 146.332 373.415 144.434L373.446 144.43V144.247Z" fill="url(#paint20_linear_27_877)"/>
<path d="M369.558 107.366L304.424 69.761C299.24 66.7685 290.837 66.7685 285.654 69.761L220.862 107.436C215.679 110.428 215.679 115.28 220.862 118.272L285.997 155.878C291.18 158.87 299.583 158.87 304.766 155.878L369.558 118.203C374.742 115.21 374.742 110.359 369.558 107.366Z" fill="url(#paint21_linear_27_877)"/>
<path opacity="0.4" d="M338.531 109.641L300.578 87.7289C297.558 85.9844 292.661 85.9844 289.641 87.7289L251.888 109.682C248.868 111.427 248.868 114.253 251.888 115.996L289.841 137.908C292.861 139.652 297.758 139.652 300.778 137.908L338.531 115.955C341.552 114.212 341.552 111.385 338.531 109.641Z" fill="#06033E"/>
<path d="M369.558 116.31L304.766 153.985C299.583 156.978 291.18 156.978 285.997 153.985L220.862 116.38C218.689 115.124 217.439 113.542 217.089 111.907C216.604 114.171 217.853 116.533 220.862 118.271L285.997 155.876C291.18 158.868 299.583 158.868 304.766 155.876L369.558 118.201C372.569 116.464 373.817 114.1 373.331 111.837C372.981 113.473 371.733 115.055 369.558 116.31Z" fill="white"/>
<path d="M313.525 164.214L310.441 165.993V162.432L313.525 160.652V164.214Z" fill="white"/>
<path d="M319.976 160.489L316.892 162.27V158.707L319.976 156.929V160.489Z" fill="white"/>
<path d="M326.427 156.765L323.343 158.545V154.985L326.427 153.205V156.765Z" fill="white"/>
<path d="M321.152 167.025L318.069 168.805V165.244L321.152 163.464V167.025Z" fill="white"/>
<path d="M326.832 163.744L323.749 165.525V161.964L326.832 160.184V163.744Z" fill="white"/>
<path d="M347.119 144.818L344.036 146.598V143.038L347.119 141.257V144.818Z" fill="white"/>
<path d="M364.889 134.558L361.806 136.338V132.778L364.889 130.998V134.558Z" fill="white"/>
<path d="M332.878 153.04L329.794 154.82V151.26L332.878 149.48V153.04Z" fill="white"/>
<path d="M373.446 85.6594L373.435 54.4303L333.971 59.6959L304.422 42.635C299.239 39.6425 290.836 39.6425 285.652 42.635L281.051 45.5598L216.979 54.1089V85.7041C216.979 85.7219 216.979 85.7397 216.979 85.7558V85.904L217.004 85.9004C217.077 87.8038 218.346 89.6947 220.862 91.1482L285.997 128.753C291.18 131.746 299.583 131.746 304.767 128.753L369.558 91.0767C372.067 89.6286 373.333 87.7449 373.415 85.8469L373.446 85.8433V85.6594Z" fill="url(#paint22_linear_27_877)"/>
<path d="M369.558 48.7774L304.424 11.1722C299.24 8.17959 290.837 8.17959 285.654 11.1722L220.862 48.847C215.679 51.8396 215.679 56.6909 220.862 59.6835L285.997 97.2887C291.18 100.281 299.583 100.281 304.766 97.2887L369.558 59.6138C374.742 56.6213 374.742 51.77 369.558 48.7774Z" fill="url(#paint23_linear_27_877)"/>
<path d="M369.558 57.7212L304.766 95.3961C299.583 98.3886 291.18 98.3886 285.997 95.3961L220.862 57.7908C218.689 56.5356 217.439 54.9536 217.089 53.3181C216.604 55.5821 217.853 57.9444 220.862 59.6817L285.997 97.287C291.18 100.28 299.583 100.28 304.766 97.287L369.558 59.6121C372.569 57.8748 373.817 55.5107 373.331 53.2484C372.981 54.884 371.733 56.4677 369.558 57.7212Z" fill="white"/>
<path d="M313.525 105.625L310.441 107.405V103.845L313.525 102.065V105.625Z" fill="white"/>
<path d="M319.976 101.901L316.892 103.681V100.12L319.976 98.3402V101.901Z" fill="white"/>
<path d="M326.427 98.1761L323.343 99.9563V96.3959L326.427 94.6157V98.1761Z" fill="white"/>
<path d="M321.152 108.436L318.069 110.216V106.656L321.152 104.875V108.436Z" fill="white"/>
<path d="M326.832 105.156L323.749 106.938V103.375L326.832 101.595V105.156Z" fill="white"/>
<path d="M347.119 86.229L344.036 88.0091V84.4488L347.119 82.6686V86.229Z" fill="white"/>
<path d="M364.889 75.9693L361.806 77.7495V74.1891L364.889 72.4089V75.9693Z" fill="white"/>
<path d="M332.878 94.4513L329.794 96.2315V92.6712L332.878 90.891V94.4513Z" fill="white"/>
<path d="M182.157 337.028C178.648 337.028 175.14 336.256 172.47 334.715L107.336 297.108C104.632 295.548 103.145 293.437 103.145 291.166C103.145 288.893 104.634 286.783 107.336 285.222L172.126 247.547C177.468 244.46 186.16 244.462 191.502 247.545L256.637 285.152C259.34 286.713 260.828 288.823 260.828 291.095C260.828 293.368 259.34 295.478 256.637 297.039L191.847 334.714C189.176 336.258 185.665 337.028 182.157 337.028ZM181.814 246.428C178.525 246.428 175.236 247.151 172.731 248.597L107.941 286.272C105.629 287.607 104.356 289.347 104.356 291.168C104.356 292.989 105.629 294.726 107.939 296.06L173.074 333.667C178.082 336.558 186.23 336.558 191.238 333.667L256.028 295.992C258.341 294.657 259.614 292.918 259.614 291.096C259.614 289.275 258.34 287.538 256.03 286.204L190.895 248.599C188.392 247.151 185.103 246.428 181.814 246.428Z" fill="url(#paint24_linear_27_877)"/>
<path d="M260.54 270.541L260.529 239.312L221.065 244.578L191.516 227.517C186.333 224.524 177.93 224.524 172.747 227.517L168.146 230.442L104.073 238.991V270.586C104.073 270.604 104.073 270.622 104.073 270.638V270.786L104.096 270.782C104.17 272.686 105.439 274.577 107.955 276.03L173.09 313.635C178.273 316.628 186.676 316.628 191.859 313.635L256.651 275.959C259.16 274.511 260.426 272.627 260.508 270.729L260.54 270.725V270.541Z" fill="url(#paint25_linear_27_877)"/>
<path d="M256.653 233.661L191.518 196.056C186.335 193.063 177.932 193.063 172.749 196.056L107.957 233.731C102.773 236.723 102.773 241.575 107.957 244.567L173.092 282.172C178.275 285.165 186.678 285.165 191.861 282.172L256.653 244.497C261.836 241.505 261.836 236.654 256.653 233.661Z" fill="url(#paint26_linear_27_877)"/>
<path d="M256.653 242.605L191.861 280.28C186.678 283.272 178.275 283.272 173.092 280.28L107.957 242.675C105.784 241.419 104.534 239.837 104.184 238.202C103.698 240.466 104.948 242.828 107.957 244.565L173.092 282.172C178.275 285.165 186.678 285.165 191.861 282.172L256.653 244.496C259.664 242.758 260.912 240.394 260.426 238.132C260.076 239.768 258.826 241.35 256.653 242.605Z" fill="white"/>
<path d="M200.619 290.509L197.536 292.289V288.729L200.619 286.949V290.509Z" fill="white"/>
<path d="M207.071 286.784L203.987 288.565V285.004L207.071 283.224V286.784Z" fill="white"/>
<path d="M213.52 283.06L210.438 284.84V281.28L213.52 279.499V283.06Z" fill="white"/>
<path d="M208.247 293.319L205.163 295.1V291.539L208.247 289.759V293.319Z" fill="white"/>
<path d="M213.927 290.04L210.843 291.82V288.259L213.927 286.479V290.04Z" fill="white"/>
<path d="M234.212 271.113L231.129 272.893V269.333L234.212 267.552V271.113Z" fill="white"/>
<path d="M251.984 260.853L248.9 262.633V259.073L251.984 257.293V260.853Z" fill="white"/>
<path d="M219.973 279.335L216.889 281.115V277.555L219.973 275.775V279.335Z" fill="white"/>
<path opacity="0.4" d="M178.62 266.286L134.797 240.985C133.015 239.957 133.24 238.161 135.295 236.973L178.118 212.249C180.175 211.061 183.285 210.933 185.067 211.961L228.89 237.262C230.672 238.291 230.448 240.087 228.391 241.275L185.569 265.999C183.512 267.186 180.4 267.315 178.62 266.286Z" fill="#06033E"/>
<path d="M161.378 293.671L125.216 272.793C124.353 272.295 123.654 270.957 123.654 269.808V267.122C123.654 265.97 124.353 265.442 125.216 265.94L161.378 286.818C162.241 287.317 162.941 288.654 162.941 289.806V292.491C162.941 293.641 162.241 294.169 161.378 293.671Z" fill="white"/>
<path d="M260.54 211.954L260.529 180.725L221.065 185.991L191.516 168.93C186.333 165.937 177.93 165.937 172.747 168.93L168.146 171.855L104.073 180.404V211.999C104.073 212.017 104.073 212.035 104.073 212.051V212.199L104.096 212.195C104.17 214.099 105.439 215.99 107.955 217.443L173.09 255.048C178.273 258.041 186.676 258.041 191.859 255.048L256.651 217.372C259.16 215.924 260.426 214.04 260.508 212.142L260.54 212.138V211.954Z" fill="url(#paint27_linear_27_877)"/>
<path d="M256.653 175.072L191.518 137.467C186.335 134.474 177.932 134.474 172.749 137.467L107.957 175.142C102.773 178.134 102.773 182.986 107.957 185.978L173.092 223.585C178.275 226.578 186.678 226.578 191.861 223.585L256.653 185.91C261.836 182.918 261.836 178.065 256.653 175.072Z" fill="url(#paint28_linear_27_877)"/>
<path opacity="0.4" d="M225.626 177.349L187.672 155.437C184.653 153.692 179.755 153.692 176.736 155.437L138.983 177.39C135.963 179.134 135.963 181.961 138.983 183.704L176.936 205.616C179.955 207.36 184.853 207.36 187.872 205.616L225.626 183.662C228.647 181.92 228.647 179.093 225.626 177.349Z" fill="#06033E"/>
<path d="M256.653 184.016L191.861 221.691C186.678 224.683 178.275 224.683 173.092 221.691L107.957 184.086C105.784 182.83 104.534 181.248 104.184 179.613C103.698 181.877 104.948 184.239 107.957 185.977L173.092 223.584C178.275 226.576 186.678 226.576 191.861 223.584L256.653 185.909C259.664 184.171 260.912 181.807 260.426 179.545C260.076 181.179 258.826 182.763 256.653 184.016Z" fill="white"/>
<path d="M200.619 231.92L197.536 233.7V230.14L200.619 228.36V231.92Z" fill="white"/>
<path d="M207.071 228.196L203.987 229.976V226.415L207.071 224.635V228.196Z" fill="white"/>
<path d="M213.52 224.471L210.438 226.251V222.691L213.52 220.911V224.471Z" fill="white"/>
<path d="M208.247 234.731L205.163 236.512V232.95L208.247 231.17V234.731Z" fill="white"/>
<path d="M213.927 231.452L210.843 233.233V229.672L213.927 227.892V231.452Z" fill="white"/>
<path d="M234.212 212.526L231.129 214.306V210.745L234.212 208.964V212.526Z" fill="white"/>
<path d="M251.984 202.264L248.9 204.044V200.484L251.984 198.704V202.264Z" fill="white"/>
<path d="M219.973 220.746L216.889 222.528V218.966L219.973 217.186V220.746Z" fill="white"/>
<path d="M260.54 153.365L260.529 122.136L221.065 127.402L191.516 110.341C186.333 107.348 177.93 107.348 172.747 110.341L168.146 113.266L104.073 121.815V153.41C104.073 153.428 104.073 153.446 104.073 153.462V153.61L104.096 153.606C104.17 155.51 105.439 157.401 107.955 158.854L173.09 196.459C178.273 199.452 186.676 199.452 191.859 196.459L256.651 158.783C259.16 157.335 260.426 155.451 260.508 153.553L260.54 153.549V153.365Z" fill="url(#paint29_linear_27_877)"/>
<path d="M256.653 116.485L191.518 78.8798C186.335 75.8872 177.932 75.8872 172.749 78.8798L107.957 116.555C102.773 119.547 102.773 124.399 107.957 127.391L173.092 164.996C178.275 167.989 186.678 167.989 191.861 164.996L256.653 127.321C261.836 124.329 261.836 119.478 256.653 116.485Z" fill="url(#paint30_radial_27_877)"/>
<path d="M256.653 116.485L191.518 78.8798C186.335 75.8872 177.932 75.8872 172.749 78.8798L107.957 116.555C102.773 119.547 102.773 124.399 107.957 127.391L173.092 164.996C178.275 167.989 186.678 167.989 191.861 164.996L256.653 127.321C261.836 124.329 261.836 119.478 256.653 116.485Z" fill="url(#paint31_linear_27_877)"/>
<path d="M182.418 152.812C180.029 152.812 177.64 152.274 175.777 151.199L132.621 126.282C130.687 125.166 129.623 123.631 129.623 121.961C129.623 120.29 130.687 118.754 132.621 117.638L175.547 92.6748C179.275 90.5233 185.108 90.5233 188.831 92.6748L231.99 117.592C233.923 118.708 234.987 120.244 234.987 121.913C234.987 123.584 233.923 125.12 231.99 126.236L189.062 151.198C187.198 152.276 184.807 152.812 182.418 152.812ZM182.191 92.757C180.093 92.757 177.993 93.2176 176.395 94.1408L133.467 119.103C132.076 119.904 131.312 120.92 131.312 121.961C131.312 123.002 132.076 124.016 133.463 124.818L176.62 149.735C179.814 151.58 185.014 151.58 188.21 149.735L231.138 124.773C232.529 123.972 233.293 122.956 233.293 121.915C233.293 120.874 232.529 119.86 231.14 119.058L187.981 94.1408C186.389 93.2176 184.289 92.757 182.191 92.757Z" fill="url(#paint32_linear_27_877)"/>
<path d="M256.653 125.429L191.861 163.104C186.678 166.096 178.275 166.096 173.092 163.104L107.957 125.499C105.784 124.243 104.534 122.661 104.184 121.026C103.698 123.29 104.948 125.652 107.957 127.389L173.092 164.996C178.275 167.989 186.678 167.989 191.861 164.996L256.653 127.322C259.664 125.584 260.912 123.22 260.426 120.958C260.076 122.592 258.826 124.174 256.653 125.429Z" fill="white"/>
<path d="M200.619 173.333L197.536 175.113V171.553L200.619 169.773V173.333Z" fill="white"/>
<path d="M207.071 169.608L203.987 171.389V167.828L207.071 166.048V169.608Z" fill="white"/>
<path d="M213.52 165.884L210.438 167.664V164.104L213.52 162.323V165.884Z" fill="white"/>
<path d="M208.247 176.144L205.163 177.924V174.363L208.247 172.583V176.144Z" fill="white"/>
<path d="M213.927 172.863L210.843 174.644V171.083L213.927 169.303V172.863Z" fill="white"/>
<path d="M234.212 153.937L231.129 155.717V152.157L234.212 150.376V153.937Z" fill="white"/>
<path d="M251.984 143.677L248.9 145.457V141.897L251.984 140.117V143.677Z" fill="white"/>
<path d="M219.973 162.159L216.889 163.939V160.379L219.973 158.599V162.159Z" fill="white"/>
<path d="M412.168 336.962C408.66 336.962 405.153 336.19 402.482 334.649L337.347 297.042C334.645 295.482 333.156 293.371 333.156 291.102C333.156 288.829 334.645 286.717 337.347 285.156L402.137 247.483C407.479 244.396 416.171 244.398 421.514 247.481L486.65 285.086C489.353 286.647 490.841 288.758 490.841 291.029C490.841 293.302 489.353 295.41 486.65 296.971L421.858 334.646C419.187 336.192 415.677 336.962 412.168 336.962ZM411.825 246.363C408.536 246.363 405.247 247.087 402.744 248.533L337.954 286.206C335.642 287.543 334.367 289.282 334.369 291.102C334.369 292.923 335.642 294.661 337.952 295.994L403.087 333.601C408.095 336.492 416.243 336.492 421.251 333.601L486.041 295.927C488.355 294.591 489.628 292.852 489.628 291.032C489.628 289.211 488.355 287.474 486.043 286.14L420.908 248.533C418.403 247.087 415.114 246.363 411.825 246.363Z" fill="url(#paint33_linear_27_877)"/>
<path d="M490.551 270.477L490.541 239.248L451.077 244.514L421.528 227.453C416.344 224.46 407.942 224.46 402.758 227.453L398.157 230.378L334.085 238.927V270.522C334.085 270.54 334.085 270.557 334.085 270.574V270.722L334.11 270.718C334.183 272.622 335.452 274.512 337.968 275.966L403.103 313.571C408.286 316.564 416.689 316.564 421.872 313.571L486.664 275.894C489.173 274.446 490.439 272.563 490.521 270.665L490.551 270.661V270.477Z" fill="url(#paint34_linear_27_877)"/>
<path d="M486.664 233.595L421.53 195.99C416.346 192.997 407.944 192.997 402.76 195.99L337.968 233.665C332.785 236.657 332.785 241.509 337.968 244.501L403.103 282.106C408.286 285.099 416.689 285.099 421.873 282.106L486.664 244.431C491.848 241.439 491.848 236.588 486.664 233.595Z" fill="url(#paint35_linear_27_877)"/>
<path d="M486.664 242.539L421.872 280.214C416.689 283.206 408.286 283.206 403.103 280.214L337.968 242.608C335.795 241.353 334.545 239.771 334.195 238.136C333.71 240.4 334.96 242.762 337.968 244.499L403.103 282.106C408.286 285.099 416.689 285.099 421.872 282.106L486.664 244.43C489.675 242.692 490.923 240.328 490.437 238.066C490.087 239.702 488.839 241.284 486.664 242.539Z" fill="white"/>
<path d="M430.63 290.443L427.547 292.223V288.663L430.63 286.883V290.443Z" fill="white"/>
<path d="M437.082 286.718L433.998 288.499V284.938L437.082 283.158V286.718Z" fill="white"/>
<path d="M443.533 282.994L440.449 284.774V281.214L443.533 279.433V282.994Z" fill="white"/>
<path d="M438.258 293.253L435.175 295.034V291.473L438.258 289.693V293.253Z" fill="white"/>
<path d="M443.938 289.973L440.854 291.755V288.193L443.938 286.413V289.973Z" fill="white"/>
<path d="M464.225 271.047L461.142 272.827V269.267L464.225 267.486V271.047Z" fill="white"/>
<path d="M481.995 260.787L478.911 262.567V259.007L481.995 257.227V260.787Z" fill="white"/>
<path d="M449.984 279.269L446.9 281.049V277.489L449.984 275.709V279.269Z" fill="white"/>
<path opacity="0.4" d="M408.631 266.22L364.809 240.919C363.027 239.891 363.252 238.095 365.307 236.907L408.129 212.183C410.186 210.995 413.298 210.867 415.079 211.895L458.901 237.196C460.683 238.225 460.458 240.021 458.403 241.209L415.58 265.933C413.523 267.12 410.413 267.249 408.631 266.22Z" fill="#06033E"/>
<path d="M391.39 293.607L355.227 272.729C354.363 272.231 353.665 270.893 353.665 269.742V267.056C353.665 265.904 354.365 265.376 355.227 265.874L391.39 286.752C392.252 287.251 392.952 288.588 392.952 289.74V292.425C392.954 293.575 392.254 294.105 391.39 293.607Z" fill="white"/>
<path d="M490.551 211.888L490.541 180.659L451.077 185.925L421.528 168.864C416.344 165.871 407.942 165.871 402.758 168.864L398.157 171.789L334.085 180.338V211.933C334.085 211.951 334.085 211.969 334.085 211.985V212.133L334.11 212.129C334.183 214.033 335.452 215.923 337.968 217.377L403.103 254.982C408.286 257.975 416.689 257.975 421.872 254.982L486.664 217.305C489.173 215.857 490.439 213.974 490.521 212.076L490.551 212.072V211.888Z" fill="url(#paint36_linear_27_877)"/>
<path d="M486.664 175.008L421.53 137.403C416.346 134.41 407.944 134.41 402.76 137.403L337.968 175.078C332.785 178.07 332.785 182.921 337.968 185.914L403.103 223.519C408.286 226.512 416.689 226.512 421.873 223.519L486.664 185.844C491.848 182.852 491.848 178 486.664 175.008Z" fill="url(#paint37_linear_27_877)"/>
<path opacity="0.4" d="M455.637 177.283L417.684 155.371C414.664 153.626 409.767 153.626 406.747 155.371L368.994 177.324C365.974 179.068 365.974 181.895 368.994 183.637L406.947 205.55C409.967 207.294 414.864 207.294 417.884 205.55L455.637 183.596C458.658 181.854 458.658 179.027 455.637 177.283Z" fill="#06033E"/>
<path d="M486.664 183.952L421.872 221.627C416.689 224.619 408.286 224.619 403.103 221.627L337.968 184.021C335.795 182.766 334.545 181.184 334.195 179.549C333.71 181.813 334.96 184.175 337.968 185.912L403.103 223.518C408.286 226.51 416.689 226.51 421.872 223.518L486.664 185.843C489.675 184.105 490.923 181.741 490.437 179.479C490.087 181.115 488.839 182.697 486.664 183.952Z" fill="white"/>
<path d="M430.63 231.856L427.547 233.634V230.074L430.63 228.294V231.856Z" fill="white"/>
<path d="M437.082 228.131L433.998 229.911V226.349L437.082 224.571V228.131Z" fill="white"/>
<path d="M443.533 224.407L440.449 226.187V222.627L443.533 220.846V224.407Z" fill="white"/>
<path d="M438.258 234.666L435.175 236.446V232.886L438.258 231.106V234.666Z" fill="white"/>
<path d="M443.938 231.386L440.854 233.166V229.606L443.938 227.826V231.386Z" fill="white"/>
<path d="M464.225 212.46L461.142 214.24V210.679L464.225 208.899V212.46Z" fill="white"/>
<path d="M481.995 202.2L478.911 203.98V200.42L481.995 198.64V202.2Z" fill="white"/>
<path d="M449.984 220.682L446.9 222.462V218.902L449.984 217.121V220.682Z" fill="white"/>
<path d="M490.551 153.301L490.541 122.072L451.077 127.338L421.528 110.277C416.344 107.284 407.942 107.284 402.758 110.277L398.157 113.201L334.085 121.751V153.346C334.085 153.364 334.085 153.381 334.085 153.398V153.546L334.11 153.542C334.183 155.446 335.452 157.336 337.968 158.79L403.103 196.395C408.286 199.388 416.689 199.388 421.872 196.395L486.664 158.718C489.173 157.27 490.439 155.387 490.521 153.489L490.551 153.485V153.301Z" fill="url(#paint38_linear_27_877)"/>
<path d="M486.664 116.419L421.53 78.8138C416.346 75.8212 407.944 75.8212 402.76 78.8138L337.968 116.489C332.785 119.481 332.785 124.333 337.968 127.325L403.103 164.93C408.286 167.923 416.689 167.923 421.873 164.93L486.664 127.255C491.848 124.263 491.848 119.412 486.664 116.419Z" fill="url(#paint39_linear_27_877)"/>
<path d="M486.664 125.363L421.872 163.038C416.689 166.03 408.286 166.03 403.103 163.038L337.968 125.432C335.795 124.177 334.545 122.595 334.195 120.96C333.71 123.224 334.96 125.586 337.968 127.323L403.103 164.929C408.286 167.921 416.689 167.921 421.872 164.929L486.664 127.254C489.675 125.516 490.923 123.152 490.437 120.89C490.087 122.526 488.839 124.109 486.664 125.363Z" fill="white"/>
<path d="M430.63 173.267L427.547 175.047V171.487L430.63 169.707V173.267Z" fill="white"/>
<path d="M437.082 169.542L433.998 171.322V167.762L437.082 165.982V169.542Z" fill="white"/>
<path d="M443.533 165.818L440.449 167.598V164.037L443.533 162.257V165.818Z" fill="white"/>
<path d="M438.258 176.077L435.175 177.858V174.297L438.258 172.517V176.077Z" fill="white"/>
<path d="M443.938 172.797L440.854 174.579V171.017L443.938 169.237V172.797Z" fill="white"/>
<path d="M464.225 153.871L461.142 155.651V152.091L464.225 150.31V153.871Z" fill="white"/>
<path d="M481.995 143.611L478.911 145.391V141.831L481.995 140.051V143.611Z" fill="white"/>
<path d="M449.984 162.093L446.9 163.873V160.313L449.984 158.533V162.093Z" fill="white"/>
<path d="M295.062 383.595C291.553 383.595 288.047 382.823 285.376 381.282L220.241 343.675C217.539 342.115 216.05 340.004 216.05 337.735C216.05 335.462 217.539 333.35 220.241 331.789L285.031 294.116C290.373 291.029 299.065 291.031 304.408 294.114L369.544 331.719C372.247 333.28 373.735 335.39 373.735 337.662C373.735 339.935 372.247 342.043 369.544 343.604L304.752 381.279C302.081 382.825 298.571 383.595 295.062 383.595ZM294.719 292.996C291.43 292.996 288.141 293.72 285.638 295.166L220.848 332.839C218.536 334.176 217.261 335.915 217.263 337.735C217.263 339.556 218.536 341.293 220.846 342.627L285.981 380.234C290.989 383.125 299.137 383.125 304.145 380.234L368.935 342.559C371.249 341.224 372.522 339.485 372.522 337.665C372.522 335.844 371.249 334.107 368.937 332.773L303.802 295.166C301.297 293.72 298.008 292.996 294.719 292.996Z" fill="url(#paint40_linear_27_877)"/>
<path d="M373.445 317.11L373.435 285.881L333.971 291.147L304.422 274.086C299.238 271.093 290.836 271.093 285.652 274.086L281.051 277.01L216.979 285.56V317.155C216.979 317.173 216.979 317.19 216.979 317.206V317.355L217.004 317.351C217.077 319.254 218.346 321.145 220.862 322.599L285.997 360.204C291.18 363.197 299.583 363.197 304.766 360.204L369.558 322.527C372.067 321.079 373.333 319.196 373.415 317.298L373.445 317.294V317.11Z" fill="url(#paint41_linear_27_877)"/>
<path d="M369.558 280.228L304.424 242.623C299.24 239.63 290.837 239.63 285.654 242.623L220.862 280.298C215.679 283.29 215.679 288.141 220.862 291.134L285.997 328.739C291.18 331.732 299.583 331.732 304.766 328.739L369.558 291.064C374.742 288.072 374.742 283.221 369.558 280.228Z" fill="url(#paint42_linear_27_877)"/>
<path d="M369.558 289.172L304.766 326.847C299.583 329.839 291.18 329.839 285.997 326.847L220.862 289.241C218.689 287.986 217.439 286.404 217.089 284.769C216.604 287.033 217.853 289.395 220.862 291.132L285.997 328.739C291.18 331.732 299.583 331.732 304.766 328.739L369.558 291.063C372.569 289.325 373.817 286.961 373.331 284.699C372.981 286.335 371.733 287.916 369.558 289.172Z" fill="white"/>
<path d="M313.525 337.076L310.441 338.856V335.296L313.525 333.516V337.076Z" fill="white"/>
<path d="M319.976 333.351L316.892 335.132V331.571L319.976 329.791V333.351Z" fill="white"/>
<path d="M326.427 329.627L323.343 331.407V327.846L326.427 326.066V329.627Z" fill="white"/>
<path d="M321.152 339.886L318.069 341.667V338.106L321.152 336.326V339.886Z" fill="white"/>
<path d="M326.832 336.606L323.749 338.388V334.826L326.832 333.046V336.606Z" fill="white"/>
<path d="M347.119 317.68L344.036 319.46V315.899L347.119 314.119V317.68Z" fill="white"/>
<path d="M364.889 307.42L361.805 309.2V305.64L364.889 303.86V307.42Z" fill="white"/>
<path d="M332.878 325.902L329.794 327.682V324.122L332.878 322.342V325.902Z" fill="white"/>
<path opacity="0.4" d="M291.525 312.853L247.702 287.552C245.92 286.524 246.145 284.727 248.201 283.54L291.023 258.816C293.08 257.628 296.192 257.5 297.972 258.528L341.795 283.829C343.577 284.858 343.352 286.654 341.297 287.841L298.474 312.566C296.417 313.753 293.307 313.882 291.525 312.853Z" fill="#06033E"/>
<path d="M274.284 340.24L238.121 319.362C237.257 318.863 236.559 317.526 236.559 316.374V313.689C236.559 312.537 237.259 312.009 238.121 312.507L274.284 333.385C275.146 333.883 275.846 335.221 275.846 336.372V339.058C275.848 340.208 275.148 340.738 274.284 340.24Z" fill="white"/>
<path d="M373.445 258.521L373.435 227.292L333.971 232.558L304.422 215.497C299.238 212.504 290.836 212.504 285.652 215.497L281.051 218.422L216.979 226.971V258.566C216.979 258.584 216.979 258.602 216.979 258.618V258.766L217.004 258.762C217.077 260.666 218.346 262.557 220.862 264.01L285.997 301.615C291.18 304.608 299.583 304.608 304.766 301.615L369.558 263.939C372.067 262.49 373.333 260.607 373.415 258.709L373.445 258.705V258.521Z" fill="url(#paint43_linear_27_877)"/>
<path d="M369.558 221.641L304.424 184.036C299.24 181.043 290.837 181.043 285.654 184.036L220.862 221.71C215.679 224.703 215.679 229.554 220.862 232.547L285.997 270.152C291.18 273.145 299.583 273.145 304.766 270.152L369.558 232.477C374.742 229.485 374.742 224.633 369.558 221.641Z" fill="url(#paint44_linear_27_877)"/>
<path opacity="0.4" d="M338.531 223.916L300.578 202.004C297.558 200.259 292.66 200.259 289.641 202.004L251.888 223.957C248.868 225.701 248.868 228.528 251.888 230.27L289.841 252.183C292.86 253.927 297.758 253.927 300.778 252.183L338.531 230.229C341.552 228.487 341.552 225.66 338.531 223.916Z" fill="#06033E"/>
<path d="M369.558 230.585L304.766 268.26C299.583 271.252 291.18 271.252 285.997 268.26L220.862 230.654C218.689 229.399 217.439 227.817 217.089 226.182C216.604 228.446 217.853 230.808 220.862 232.545L285.997 270.15C291.18 273.143 299.583 273.143 304.766 270.15L369.558 232.476C372.569 230.738 373.817 228.374 373.331 226.112C372.981 227.747 371.733 229.329 369.558 230.585Z" fill="white"/>
<path d="M313.525 278.489L310.441 280.267V276.707L313.525 274.927V278.489Z" fill="white"/>
<path d="M319.976 274.764L316.892 276.544V272.982L319.976 271.204V274.764Z" fill="white"/>
<path d="M326.427 271.04L323.343 272.82V269.259L326.427 267.479V271.04Z" fill="white"/>
<path d="M321.152 281.299L318.069 283.079V279.519L321.152 277.739V281.299Z" fill="white"/>
<path d="M326.832 278.019L323.749 279.799V276.239L326.832 274.459V278.019Z" fill="white"/>
<path d="M347.119 259.092L344.036 260.873V257.312L347.119 255.532V259.092Z" fill="white"/>
<path d="M364.889 248.833L361.805 250.613V247.053L364.889 245.272V248.833Z" fill="white"/>
<path d="M332.878 267.315L329.794 269.095V265.535L332.878 263.755V267.315Z" fill="white"/>
<path d="M452.782 315.887L452.176 316.937L564.292 381.669L564.898 380.619L452.782 315.887Z" fill="url(#paint45_linear_27_877)"/>
<path d="M611.888 354.206L576.063 333.523C572.795 331.635 568.464 330.398 563.866 330.035L525.416 327.014C520.642 326.641 516.129 325.347 512.708 323.372L476.883 302.688L477.489 301.638L513.315 322.322C516.581 324.209 520.913 325.447 525.511 325.807L563.96 328.828C568.735 329.203 573.249 330.5 576.67 332.473L612.493 353.156L611.888 354.206Z" fill="url(#paint46_linear_27_877)"/>
<path d="M516.736 409.142L480.911 388.458C477.422 386.442 475.128 383.752 474.451 380.882L469.22 358.683C468.62 356.14 466.529 353.724 463.331 351.878L427.506 331.194L428.111 330.144L463.936 350.828C467.427 352.844 469.721 355.535 470.398 358.404L475.63 380.604C476.23 383.146 478.321 385.562 481.518 387.408L517.343 408.092L516.736 409.142Z" fill="url(#paint47_linear_27_877)"/>
<path d="M540.524 395.408L502.34 373.362C500.395 372.238 498.833 370.93 497.699 369.471L482.322 349.696C481.283 348.362 479.838 347.155 478.033 346.112L439.849 324.066L440.455 323.016L478.639 345.063C480.583 346.184 482.144 347.493 483.279 348.953L498.656 368.728C499.694 370.06 501.138 371.267 502.947 372.312L541.131 394.358L540.524 395.408Z" fill="url(#paint48_linear_27_877)"/>
<path d="M588.101 367.939L549.915 345.893C548.09 344.837 545.964 343.993 543.594 343.377L509.346 334.496C506.875 333.856 504.646 332.969 502.722 331.858L464.538 309.812L465.143 308.762L503.329 330.809C505.157 331.866 507.286 332.71 509.65 333.324L543.898 342.206C546.375 342.847 548.603 343.734 550.522 344.845L588.708 366.891L588.101 367.939Z" fill="url(#paint49_linear_27_877)"/>
<path d="M115.856 301.138L0 367.918L0.605464 368.969L116.461 302.188L115.856 301.138Z" fill="url(#paint50_linear_27_877)"/>
<path d="M132.417 310.698L16.5608 377.479L17.1663 378.529L133.022 311.749L132.417 310.698Z" fill="url(#paint51_linear_27_877)"/>
<path d="M148.977 320.261L33.1208 387.041L33.7263 388.092L149.582 321.311L148.977 320.261Z" fill="url(#paint52_linear_27_877)"/>
<path d="M165.54 329.822L49.6824 396.603L50.2878 397.654L166.145 330.873L165.54 329.822Z" fill="url(#paint53_linear_27_877)"/>
<defs>
<linearGradient id="paint0_linear_27_877" x1="528.877" y1="271.179" x2="528.877" y2="277.217" gradientUnits="userSpaceOnUse">
<stop stop-color="#FFD380"/>
<stop offset="1" stop-color="#FF6361"/>
</linearGradient>
<linearGradient id="paint1_linear_27_877" x1="67.3315" y1="233.798" x2="67.3315" y2="252.639" gradientUnits="userSpaceOnUse">
<stop stop-color="#FFD380"/>
<stop offset="1" stop-color="#FF6361"/>
</linearGradient>
<linearGradient id="paint2_linear_27_877" x1="196.565" y1="23.1691" x2="196.565" y2="28.5507" gradientUnits="userSpaceOnUse">
<stop stop-color="#FFD380"/>
<stop offset="1" stop-color="#FF6361"/>
</linearGradient>
<linearGradient id="paint3_linear_27_877" x1="196.565" y1="33.061" x2="196.565" y2="38.4444" gradientUnits="userSpaceOnUse">
<stop stop-color="#FFD380"/>
<stop offset="1" stop-color="#FF6361"/>
</linearGradient>
<linearGradient id="paint4_linear_27_877" x1="196.565" y1="42.953" x2="196.565" y2="58.2265" gradientUnits="userSpaceOnUse">
<stop stop-color="#FFD380"/>
<stop offset="1" stop-color="#FF6361"/>
</linearGradient>
<linearGradient id="paint5_linear_27_877" x1="542.41" y1="138.511" x2="542.41" y2="157.352" gradientUnits="userSpaceOnUse">
<stop stop-color="#FFD380"/>
<stop offset="1" stop-color="#FF6361"/>
</linearGradient>
<linearGradient id="paint6_linear_27_877" x1="98.3294" y1="47.5651" x2="98.3294" y2="68.5666" gradientUnits="userSpaceOnUse">
<stop stop-color="#FFD380"/>
<stop offset="1" stop-color="#FF6361"/>
</linearGradient>
<linearGradient id="paint7_linear_27_877" x1="98.3294" y1="52.9055" x2="98.3294" y2="63.2259" gradientUnits="userSpaceOnUse">
<stop stop-color="#FFD380"/>
<stop offset="1" stop-color="#FF6361"/>
</linearGradient>
<linearGradient id="paint8_linear_27_877" x1="168.69" y1="358.883" x2="168.69" y2="373.053" gradientUnits="userSpaceOnUse">
<stop stop-color="#FFD380"/>
<stop offset="1" stop-color="#FF6361"/>
</linearGradient>
<linearGradient id="paint9_linear_27_877" x1="168.69" y1="362.486" x2="168.69" y2="369.45" gradientUnits="userSpaceOnUse">
<stop stop-color="#FFD380"/>
<stop offset="1" stop-color="#FF6361"/>
</linearGradient>
<linearGradient id="paint10_linear_27_877" x1="427.749" y1="273.859" x2="427.749" y2="288.622" gradientUnits="userSpaceOnUse">
<stop stop-color="#FFD380"/>
<stop offset="1" stop-color="#FF6361"/>
</linearGradient>
<linearGradient id="paint11_linear_27_877" x1="427.749" y1="277.614" x2="427.749" y2="284.867" gradientUnits="userSpaceOnUse">
<stop stop-color="#FFD380"/>
<stop offset="1" stop-color="#FF6361"/>
</linearGradient>
<linearGradient id="paint12_linear_27_877" x1="234.905" y1="118.112" x2="234.905" y2="129.528" gradientUnits="userSpaceOnUse">
<stop stop-color="#FFD380"/>
<stop offset="1" stop-color="#FF6361"/>
</linearGradient>
<linearGradient id="paint13_linear_27_877" x1="234.905" y1="121.015" x2="234.905" y2="126.625" gradientUnits="userSpaceOnUse">
<stop stop-color="#FFD380"/>
<stop offset="1" stop-color="#FF6361"/>
</linearGradient>
<linearGradient id="paint14_linear_27_877" x1="449.734" y1="351.248" x2="449.734" y2="357.44" gradientUnits="userSpaceOnUse">
<stop stop-color="#FFD380"/>
<stop offset="1" stop-color="#FF6361"/>
</linearGradient>
<linearGradient id="paint15_linear_27_877" x1="426.179" y1="182.18" x2="426.179" y2="185.641" gradientUnits="userSpaceOnUse">
<stop stop-color="#FFD380"/>
<stop offset="1" stop-color="#FF6361"/>
</linearGradient>
<linearGradient id="paint16_linear_27_877" x1="190.365" y1="321.37" x2="190.365" y2="324.831" gradientUnits="userSpaceOnUse">
<stop stop-color="#FFD380"/>
<stop offset="1" stop-color="#FF6361"/>
</linearGradient>
<linearGradient id="paint17_linear_27_877" x1="294.893" y1="177.526" x2="294.893" y2="269.32" gradientUnits="userSpaceOnUse">
<stop stop-color="#FFD380"/>
<stop offset="1" stop-color="#FF6361"/>
</linearGradient>
<linearGradient id="paint18_linear_27_877" x1="295.212" y1="157.567" x2="295.212" y2="248.174" gradientUnits="userSpaceOnUse">
<stop stop-color="#C26EE2"/>
<stop offset="1" stop-color="#270634"/>
</linearGradient>
<linearGradient id="paint19_linear_27_877" x1="295.21" y1="126.104" x2="295.21" y2="216.709" gradientUnits="userSpaceOnUse">
<stop stop-color="#FFD380"/>
<stop offset="1" stop-color="#FF6361"/>
</linearGradient>
<linearGradient id="paint20_linear_27_877" x1="295.212" y1="98.9778" x2="295.212" y2="189.585" gradientUnits="userSpaceOnUse">
<stop stop-color="#C26EE2"/>
<stop offset="1" stop-color="#270634"/>
</linearGradient>
<linearGradient id="paint21_linear_27_877" x1="295.21" y1="67.5166" x2="295.21" y2="158.122" gradientUnits="userSpaceOnUse">
<stop stop-color="#C26EE2"/>
<stop offset="1" stop-color="#270634"/>
</linearGradient>
<linearGradient id="paint22_linear_27_877" x1="295.212" y1="40.3906" x2="295.212" y2="130.998" gradientUnits="userSpaceOnUse">
<stop stop-color="#C26EE2"/>
<stop offset="1" stop-color="#270634"/>
</linearGradient>
<linearGradient id="paint23_linear_27_877" x1="295.21" y1="8.92773" x2="295.21" y2="99.5331" gradientUnits="userSpaceOnUse">
<stop stop-color="#FF6361"/>
<stop offset="1" stop-color="#C26EE2"/>
</linearGradient>
<linearGradient id="paint24_linear_27_877" x1="181.986" y1="245.232" x2="181.986" y2="337.028" gradientUnits="userSpaceOnUse">
<stop stop-color="#FFD380"/>
<stop offset="1" stop-color="#FF6361"/>
</linearGradient>
<linearGradient id="paint25_linear_27_877" x1="182.307" y1="225.273" x2="182.307" y2="315.88" gradientUnits="userSpaceOnUse">
<stop stop-color="#C26EE2"/>
<stop offset="1" stop-color="#270634"/>
</linearGradient>
<linearGradient id="paint26_linear_27_877" x1="182.305" y1="193.811" x2="182.305" y2="284.417" gradientUnits="userSpaceOnUse">
<stop stop-color="#FF6361"/>
<stop offset="1" stop-color="#C26EE2"/>
</linearGradient>
<linearGradient id="paint27_linear_27_877" x1="182.307" y1="166.686" x2="182.307" y2="257.293" gradientUnits="userSpaceOnUse">
<stop stop-color="#C26EE2"/>
<stop offset="1" stop-color="#270634"/>
</linearGradient>
<linearGradient id="paint28_linear_27_877" x1="182.305" y1="135.223" x2="182.305" y2="225.83" gradientUnits="userSpaceOnUse">
<stop stop-color="#FF6361"/>
<stop offset="1" stop-color="#C26EE2"/>
</linearGradient>
<linearGradient id="paint29_linear_27_877" x1="182.307" y1="108.097" x2="182.307" y2="198.704" gradientUnits="userSpaceOnUse">
<stop stop-color="#C26EE2"/>
<stop offset="1" stop-color="#270634"/>
</linearGradient>
<radialGradient id="paint30_radial_27_877" cx="0" cy="0" r="1" gradientUnits="userSpaceOnUse" gradientTransform="translate(75.098 70.6629) scale(246.406 246.406)">
<stop stop-color="#01C8EF"/>
<stop offset="0.1396" stop-color="#03BAE4"/>
<stop offset="0.4033" stop-color="#0895C8"/>
<stop offset="0.76" stop-color="#115A9A"/>
<stop offset="1" stop-color="#172F78"/>
</radialGradient>
<linearGradient id="paint31_linear_27_877" x1="182.305" y1="76.6354" x2="182.305" y2="167.241" gradientUnits="userSpaceOnUse">
<stop stop-color="#FFD380"/>
<stop offset="1" stop-color="#FF6361"/>
</linearGradient>
<linearGradient id="paint32_linear_27_877" x1="182.305" y1="91.0612" x2="182.305" y2="152.812" gradientUnits="userSpaceOnUse">
<stop stop-color="#C26EE2"/>
<stop offset="1" stop-color="#270634"/>
</linearGradient>
<linearGradient id="paint33_linear_27_877" x1="411.999" y1="245.168" x2="411.999" y2="336.962" gradientUnits="userSpaceOnUse">
<stop stop-color="#FFD380"/>
<stop offset="1" stop-color="#FF6361"/>
</linearGradient>
<linearGradient id="paint34_linear_27_877" x1="412.318" y1="225.208" x2="412.318" y2="315.816" gradientUnits="userSpaceOnUse">
<stop stop-color="#C26EE2"/>
<stop offset="1" stop-color="#270634"/>
</linearGradient>
<linearGradient id="paint35_linear_27_877" x1="412.316" y1="193.745" x2="412.316" y2="284.351" gradientUnits="userSpaceOnUse">
<stop stop-color="#FF6361"/>
<stop offset="1" stop-color="#C26EE2"/>
</linearGradient>
<linearGradient id="paint36_linear_27_877" x1="412.318" y1="166.619" x2="412.318" y2="257.227" gradientUnits="userSpaceOnUse">
<stop stop-color="#C26EE2"/>
<stop offset="1" stop-color="#270634"/>
</linearGradient>
<linearGradient id="paint37_linear_27_877" x1="412.316" y1="135.158" x2="412.316" y2="225.764" gradientUnits="userSpaceOnUse">
<stop stop-color="#FF6361"/>
<stop offset="1" stop-color="#C26EE2"/>
</linearGradient>
<linearGradient id="paint38_linear_27_877" x1="412.318" y1="108.032" x2="412.318" y2="198.64" gradientUnits="userSpaceOnUse">
<stop stop-color="#C26EE2"/>
<stop offset="1" stop-color="#270634"/>
</linearGradient>
<linearGradient id="paint39_linear_27_877" x1="412.316" y1="76.5693" x2="412.316" y2="167.175" gradientUnits="userSpaceOnUse">
<stop stop-color="#FFD380"/>
<stop offset="1" stop-color="#FF6361"/>
</linearGradient>
<linearGradient id="paint40_linear_27_877" x1="294.892" y1="291.801" x2="294.892" y2="383.595" gradientUnits="userSpaceOnUse">
<stop stop-color="#FFD380"/>
<stop offset="1" stop-color="#FF6361"/>
</linearGradient>
<linearGradient id="paint41_linear_27_877" x1="295.212" y1="271.841" x2="295.212" y2="362.448" gradientUnits="userSpaceOnUse">
<stop stop-color="#C26EE2"/>
<stop offset="1" stop-color="#270634"/>
</linearGradient>
<linearGradient id="paint42_linear_27_877" x1="295.21" y1="240.378" x2="295.21" y2="330.984" gradientUnits="userSpaceOnUse">
<stop stop-color="#FF6361"/>
<stop offset="1" stop-color="#C26EE2"/>
</linearGradient>
<linearGradient id="paint43_linear_27_877" x1="295.212" y1="213.252" x2="295.212" y2="303.86" gradientUnits="userSpaceOnUse">
<stop stop-color="#C26EE2"/>
<stop offset="1" stop-color="#270634"/>
</linearGradient>
<linearGradient id="paint44_linear_27_877" x1="295.21" y1="181.791" x2="295.21" y2="272.397" gradientUnits="userSpaceOnUse">
<stop stop-color="#FF6361"/>
<stop offset="1" stop-color="#C26EE2"/>
</linearGradient>
<linearGradient id="paint45_linear_27_877" x1="452.479" y1="316.412" x2="564.595" y2="381.144" gradientUnits="userSpaceOnUse">
<stop stop-color="#FFD380"/>
<stop offset="1" stop-color="#FF6361"/>
</linearGradient>
<linearGradient id="paint46_linear_27_877" x1="544.688" y1="301.638" x2="544.688" y2="354.206" gradientUnits="userSpaceOnUse">
<stop stop-color="#FFD380"/>
<stop offset="1" stop-color="#FF6361"/>
</linearGradient>
<linearGradient id="paint47_linear_27_877" x1="472.425" y1="330.144" x2="472.425" y2="409.142" gradientUnits="userSpaceOnUse">
<stop stop-color="#FFD380"/>
<stop offset="1" stop-color="#FF6361"/>
</linearGradient>
<linearGradient id="paint48_linear_27_877" x1="490.49" y1="323.016" x2="490.49" y2="395.408" gradientUnits="userSpaceOnUse">
<stop stop-color="#FFD380"/>
<stop offset="1" stop-color="#FF6361"/>
</linearGradient>
<linearGradient id="paint49_linear_27_877" x1="526.623" y1="308.762" x2="526.623" y2="367.939" gradientUnits="userSpaceOnUse">
<stop stop-color="#FFD380"/>
<stop offset="1" stop-color="#FF6361"/>
</linearGradient>
<linearGradient id="paint50_linear_27_877" x1="57.9279" y1="334.528" x2="58.5333" y2="335.579" gradientUnits="userSpaceOnUse">
<stop stop-color="#FFD380"/>
<stop offset="1" stop-color="#FF6361"/>
</linearGradient>
<linearGradient id="paint51_linear_27_877" x1="74.4887" y1="344.089" x2="75.0941" y2="345.139" gradientUnits="userSpaceOnUse">
<stop stop-color="#FFD380"/>
<stop offset="1" stop-color="#FF6361"/>
</linearGradient>
<linearGradient id="paint52_linear_27_877" x1="91.0487" y1="353.651" x2="91.6542" y2="354.701" gradientUnits="userSpaceOnUse">
<stop stop-color="#FFD380"/>
<stop offset="1" stop-color="#FF6361"/>
</linearGradient>
<linearGradient id="paint53_linear_27_877" x1="107.611" y1="363.213" x2="108.216" y2="364.263" gradientUnits="userSpaceOnUse">
<stop stop-color="#FFD380"/>
<stop offset="1" stop-color="#FF6361"/>
</linearGradient>
</defs>
</svg>
